<svg width="103" height="121" viewBox="0 0 103 121" fill="none" xmlns="http://www.w3.org/2000/svg">
<g id="associacao">
<path id="backgroundIcon" d="M101.5 51.2311C101.5 86.9243 64.4167 112.367 54.1222 118.744C53.3378 119.238 52.4284 119.5 51.5 119.5C50.5716 119.5 49.6622 119.238 48.8778 118.744C38.5861 112.367 1.5 86.9243 1.5 51.2311C1.5 23.7657 23.8861 1.5 51.5 1.5C79.1139 1.5 101.5 23.7657 101.5 51.2311Z" fill="#CB5300" stroke="#FDFDFC" stroke-width="3" stroke-linecap="round" stroke-linejoin="round"/>
<g id="associacao_2">
<g id="symbolIcon">
<path id="Rectangle-134" fill-rule="evenodd" clip-rule="evenodd" d="M87.3688 52.4498C87.856 54.5852 86.9736 56.8038 84.8848 57.805C83.9056 58.2747 82.6272 58.7808 81.0648 59.1769C79.5024 59.5729 78.136 59.7393 77.0496 59.7923C74.7312 59.9088 72.8784 58.3816 72.2704 56.2779C71.5704 53.8604 70.412 49.763 69.1944 45.0557C67.976 40.3476 67.0024 36.2026 66.4424 33.7511C65.9552 31.6157 66.8376 29.3963 68.9264 28.3951L68.9304 28.3935C70.152 27.8121 71.4312 27.3527 72.7472 27.0224C74.3096 26.6264 75.676 26.4624 76.7608 26.4078C79.08 26.2921 80.9328 27.8185 81.5408 29.9222C82.24 32.3389 83.3992 36.4363 84.6168 41.1444C85.8344 45.8517 86.8088 49.9967 87.3688 52.4498ZM80.6808 51.4644L80.1776 49.5206C79.964 48.6945 79.1128 48.1955 78.2784 48.407C77.444 48.6185 76.94 49.4612 77.1544 50.2874L77.6568 52.2311C77.8704 53.0573 78.7216 53.5563 79.556 53.3448C80.3904 53.1333 80.8944 52.2905 80.6808 51.4644Z" fill="#FDFDFC"/>
<path id="Subtract" fill-rule="evenodd" clip-rule="evenodd" d="M73.0288 60.1131C72.92 60.4125 72.7936 60.7095 72.6504 61.0026C71.1512 64.0727 66.212 70.6121 61.1376 75.0018C57.8088 77.8826 53.3224 78.8981 49.5872 76.6367C50.068 76.0458 65.1736 56.9884 65.1736 56.9884C65.6184 56.4482 65.536 55.6521 64.9896 55.2125C64.444 54.7721 63.64 54.8537 63.1952 55.3947L51.9688 69.0533L52.0544 68.6763C52.5784 66.3769 51.7328 63.9832 49.8752 62.5092L39.6968 54.4307C38.0344 53.1111 35.8064 52.7246 33.7904 53.4066L32.9376 53.6949C34.2368 52.007 35.7504 50.0141 37.3504 47.8573C37.7608 47.3044 38.1624 46.7602 38.5536 46.2264C39.0752 47.0486 39.8192 47.7266 40.7192 48.1717L42.5104 49.0589C45.4648 50.521 48.96 50.4363 51.8384 48.8323C53.2936 48.0228 55.0008 47.1 56.2488 46.5242C59.556 48.8189 72.3504 59.5927 73.0288 60.1131ZM28.9592 58.4181C29.1032 58.342 29.2544 58.2763 29.412 58.2232L34.8208 56.3943C35.8048 56.0616 36.8912 56.2501 37.7024 56.8941L47.8808 64.9725C48.7872 65.6917 49.2 66.8592 48.944 67.9816L47.7016 73.4311C47.5896 73.9254 47.3552 74.3737 47.0304 74.7436C45.4736 73.3725 32.9584 62.209 28.8216 58.5187L28.9592 58.4181Z" fill="#FDFDFC"/>
<path id="Rectangle-1341" fill-rule="evenodd" clip-rule="evenodd" d="M37.8448 44.5044C37.2752 45.2846 36.68 46.0941 36.0656 46.9234C33.16 50.8402 30.54 54.2129 28.9792 56.1971C27.6224 57.9238 25.328 58.6549 23.22 57.6901C22.2328 57.2394 21.028 56.5796 19.728 55.6347C18.428 54.6897 17.4328 53.7472 16.7008 52.9503C15.1416 51.2489 15.1592 48.864 16.416 47.0636C17.8616 44.9955 20.328 41.5103 23.2336 37.5927C26.1384 33.6767 28.7584 30.3032 30.3184 28.3198C31.676 26.5931 33.9704 25.862 36.0784 26.8268C37.064 27.2782 38.2704 27.9357 39.5696 28.8806C40.6664 29.6735 41.68 30.5725 42.5936 31.5634L42.5968 31.5674C43.4496 32.4965 43.8304 33.6299 43.796 34.761L39.16 39.7329C38.0048 40.9725 37.5048 42.6786 37.8112 44.338C37.8216 44.3935 37.8328 44.4489 37.8448 44.5044ZM25.508 50.4513L26.708 48.8339C27.2176 48.1464 27.068 47.1784 26.3736 46.6739C25.68 46.1693 24.7024 46.3175 24.1928 47.005L22.9928 48.6224C22.4832 49.3099 22.6328 50.2778 23.3272 50.7824C24.0208 51.287 24.9984 51.1388 25.508 50.4513Z" fill="#FDFDFC"/>
<path id="Subtract1" fill-rule="evenodd" clip-rule="evenodd" d="M70.3368 55.3186L68.5104 53.843C66.0624 52.22 59.5944 46.7943 56.4264 44.7349C56.2632 44.7967 56.0608 44.8759 55.8784 44.9567C54.58 45.5309 52.668 46.5598 51.0568 47.4572C48.6392 48.8038 45.704 48.8751 43.2232 47.6473L41.432 46.7602C40.356 46.2279 39.596 45.2252 39.38 44.0537C39.1632 42.8822 39.516 41.679 40.332 40.8038L47.1864 33.4509C48.4096 32.1392 50.1576 31.4311 51.9584 31.5182C54.8944 31.6608 60.9792 31.9174 64.7352 32.0743C64.6832 32.7388 64.7328 33.4216 64.8872 34.0988C65.4496 36.5598 66.4272 40.7214 67.6496 45.447C68.6624 49.3606 69.6344 52.8545 70.3368 55.3186Z" fill="#FDFDFC"/>
<path id="Vector" fill-rule="evenodd" clip-rule="evenodd" d="M48.7856 64.1543C50.1304 65.222 50.7432 66.9551 50.364 68.6192L49.1544 73.9238C48.8104 75.4359 47.6984 76.6628 46.2176 77.1642C44.7368 77.6664 43.0984 77.3725 41.8904 76.3872L27.9288 64.9994C26.6672 63.9705 26.0672 62.3468 26.36 60.7547C26.652 59.1634 27.792 57.8525 29.3384 57.3297L34.6024 55.5499C36.0624 55.0565 37.676 55.3361 38.8792 56.2913L48.7856 64.1543Z" fill="#FDFDFC"/>
</g>
</g>
</g>
</svg>
