<svg width="84" height="84" viewBox="0 0 84 84" fill="none" xmlns="http://www.w3.org/2000/svg">
<g filter="url(#filter0_dd_272_1168)">
<rect x="8" y="6" width="68" height="68" rx="34" fill="#CB5300"/>
<rect x="10.5" y="8.5" width="63" height="63" rx="31.5" stroke="white" stroke-width="5"/>
<path fill-rule="evenodd" clip-rule="evenodd" d="M54.5539 40.3324C54.7244 41.0798 54.4156 41.8563 53.6845 42.2068C53.3418 42.3712 52.8943 42.5483 52.3475 42.6869C51.8007 42.8255 51.3224 42.8838 50.9422 42.9023C50.1307 42.9431 49.4823 42.4086 49.2695 41.6723C49.0245 40.8262 48.619 39.3921 48.1929 37.7445C47.7664 36.0967 47.4257 34.6459 47.2297 33.7879C47.0591 33.0405 47.368 32.2637 48.0991 31.9133L48.1005 31.9127C48.528 31.7093 48.9757 31.5485 49.4363 31.4329C49.9832 31.2942 50.4614 31.2369 50.8411 31.2177C51.6528 31.1773 52.3013 31.7115 52.5141 32.4478C52.7588 33.2936 53.1645 34.7277 53.5907 36.3756C54.0169 38.0231 54.3579 39.4739 54.5539 40.3324ZM52.2131 39.9876L52.037 39.3072C51.9622 39.0181 51.6643 38.8434 51.3723 38.9175C51.0802 38.9915 50.9038 39.2864 50.9789 39.5756L51.1547 40.2559C51.2295 40.5451 51.5274 40.7197 51.8194 40.6457C52.1115 40.5717 52.2879 40.2767 52.2131 39.9876Z" fill="#FAEEE6"/>
<path fill-rule="evenodd" clip-rule="evenodd" d="M49.535 43.0147C49.4969 43.1194 49.4527 43.2234 49.4026 43.326C48.8779 44.4005 47.1491 46.6893 45.3731 48.2257C44.208 49.234 42.6378 49.5894 41.3305 48.7979C41.4987 48.5911 46.7857 41.921 46.7857 41.921C46.9414 41.7319 46.9125 41.4533 46.7213 41.2994C46.5303 41.1453 46.2489 41.1739 46.0933 41.3632L42.164 46.1437L42.194 46.0118C42.3774 45.207 42.0814 44.3692 41.4313 43.8533L37.8688 41.0258C37.287 40.564 36.5072 40.4287 35.8016 40.6674L35.5031 40.7683C35.9578 40.1775 36.4876 39.48 37.0476 38.7251C37.1912 38.5316 37.3318 38.3411 37.4687 38.1543C37.6513 38.4421 37.9117 38.6794 38.2267 38.8352L38.8536 39.1457C39.8876 39.6574 41.1109 39.6278 42.1184 39.0664C42.6277 38.783 43.2252 38.4601 43.662 38.2585C44.8195 39.0617 49.2976 42.8325 49.535 43.0147ZM34.1107 42.4214C34.1611 42.3948 34.214 42.3718 34.2691 42.3532L36.1622 41.7131C36.5066 41.5966 36.8869 41.6626 37.1708 41.888L40.7332 44.7154C41.0505 44.9672 41.1949 45.3758 41.1053 45.7686L40.6705 47.676C40.6313 47.849 40.5493 48.0059 40.4356 48.1353C39.8907 47.6554 35.5104 43.7482 34.0625 42.4566L34.1107 42.4214Z" fill="#FAEEE6"/>
<path fill-rule="evenodd" clip-rule="evenodd" d="M37.2206 37.5516C37.0212 37.8246 36.8129 38.108 36.5979 38.3982C35.5809 39.7691 34.6639 40.9495 34.1176 41.644C33.6427 42.2483 32.8397 42.5042 32.1019 42.1666C31.7564 42.0088 31.3347 41.7779 30.8797 41.4472C30.4247 41.1164 30.0764 40.7865 29.8202 40.5076C29.2745 39.9122 29.2806 39.0774 29.7205 38.4473C30.2265 37.7234 31.0897 36.5036 32.1067 35.1325C33.1233 33.7619 34.0403 32.5811 34.5863 31.887C35.0615 31.2826 35.8645 31.0267 36.6023 31.3644C36.9473 31.5224 37.3695 31.7525 37.8243 32.0832C38.2081 32.3607 38.5629 32.6754 38.8827 33.0222L38.8838 33.0236C39.1823 33.3488 39.3155 33.7455 39.3035 34.1414L37.6809 35.8815C37.2766 36.3154 37.1016 36.9125 37.2088 37.4933C37.2125 37.5127 37.2164 37.5321 37.2206 37.5516ZM32.9027 39.633L33.3227 39.0669C33.5011 38.8262 33.4487 38.4875 33.2057 38.3109C32.9629 38.1343 32.6207 38.1861 32.4424 38.4268L32.0224 38.9929C31.844 39.2335 31.8964 39.5723 32.1394 39.7489C32.3822 39.9255 32.7243 39.8736 32.9027 39.633Z" fill="#FAEEE6"/>
<path fill-rule="evenodd" clip-rule="evenodd" d="M48.5929 41.3366L47.9537 40.8201C47.0969 40.252 44.8331 38.353 43.7243 37.6322C43.6671 37.6539 43.5963 37.6816 43.5324 37.7099C43.078 37.9109 42.4088 38.271 41.8449 38.5851C40.9987 39.0564 39.9714 39.0813 39.1031 38.6516L38.4762 38.3411C38.0996 38.1548 37.8336 37.8038 37.758 37.3938C37.6821 36.9838 37.8056 36.5627 38.0912 36.2564L40.4902 33.6829C40.9184 33.2238 41.5302 32.9759 42.1605 33.0064C43.1881 33.0563 45.3177 33.1461 46.6323 33.201C46.6141 33.4336 46.6315 33.6726 46.6855 33.9096C46.8824 34.771 47.2245 36.2275 47.6524 37.8815C48.0068 39.2513 48.3471 40.4741 48.5929 41.3366Z" fill="#FAEEE6"/>
<path fill-rule="evenodd" clip-rule="evenodd" d="M41.0498 44.429C41.5205 44.8027 41.735 45.4092 41.6023 45.9917L41.1789 47.8483C41.0585 48.3775 40.6693 48.807 40.151 48.9824C39.6327 49.1582 39.0593 49.0553 38.6365 48.7105L33.7499 44.7248C33.3084 44.3647 33.0984 43.7963 33.2009 43.2391C33.3031 42.6822 33.7021 42.2233 34.2433 42.0404L36.0857 41.4174C36.5967 41.2447 37.1615 41.3426 37.5826 41.6769L41.0498 44.429Z" fill="#FAEEE6"/>
</g>
<defs>
<filter id="filter0_dd_272_1168" x="0" y="0" width="84" height="84" filterUnits="userSpaceOnUse" color-interpolation-filters="sRGB">
<feFlood flood-opacity="0" result="BackgroundImageFix"/>
<feColorMatrix in="SourceAlpha" type="matrix" values="0 0 0 0 0 0 0 0 0 0 0 0 0 0 0 0 0 0 127 0" result="hardAlpha"/>
<feMorphology radius="2" operator="dilate" in="SourceAlpha" result="effect1_dropShadow_272_1168"/>
<feOffset dy="2"/>
<feGaussianBlur stdDeviation="3"/>
<feColorMatrix type="matrix" values="0 0 0 0 0 0 0 0 0 0 0 0 0 0 0 0 0 0 0.15 0"/>
<feBlend mode="normal" in2="BackgroundImageFix" result="effect1_dropShadow_272_1168"/>
<feColorMatrix in="SourceAlpha" type="matrix" values="0 0 0 0 0 0 0 0 0 0 0 0 0 0 0 0 0 0 127 0" result="hardAlpha"/>
<feOffset dy="1"/>
<feGaussianBlur stdDeviation="1"/>
<feColorMatrix type="matrix" values="0 0 0 0 0 0 0 0 0 0 0 0 0 0 0 0 0 0 0.3 0"/>
<feBlend mode="normal" in2="effect1_dropShadow_272_1168" result="effect2_dropShadow_272_1168"/>
<feBlend mode="normal" in="SourceGraphic" in2="effect2_dropShadow_272_1168" result="shape"/>
</filter>
</defs>
</svg>
