<svg width="103" height="121" viewBox="0 0 103 121" fill="none" xmlns="http://www.w3.org/2000/svg">
<g id="centro">
<path id="backgroundIcon" d="M101.5 51.2311C101.5 86.9243 64.4167 112.367 54.1222 118.744C53.3378 119.238 52.4284 119.5 51.5 119.5C50.5716 119.5 49.6622 119.238 48.8778 118.744C38.5861 112.367 1.5 86.9243 1.5 51.2311C1.5 23.7657 23.8861 1.5 51.5 1.5C79.1139 1.5 101.5 23.7657 101.5 51.2311Z" fill="#CB5300" stroke="#FDFDFC" stroke-width="3" stroke-linecap="round" stroke-linejoin="round"/>
<g id="centro_2">
<g id="symbolIcon">
<path id="Vector-705" fill-rule="evenodd" clip-rule="evenodd" d="M62.1289 75.8492C66.0133 75.7893 69.2406 75.7025 71.7834 75.6157C75.7457 75.4805 78.8963 72.3555 79.0599 68.3939C79.2006 64.9784 79.3295 60.6294 79.3295 56.1259C79.3295 50.2708 79.1119 44.9182 78.9324 41.4973C78.8021 39.0057 77.7472 36.6652 75.8559 35.0385C72.1133 31.8206 64.8735 26.2525 55.3223 22.013C52.9575 20.9637 50.2553 20.9637 47.8905 22.013C38.34 26.2525 31.1002 31.8206 27.3576 35.0392C25.4656 36.6652 24.4114 39.0057 24.2804 41.4973C24.1009 44.9182 23.884 50.2708 23.884 56.1259C23.884 60.6294 24.0122 64.9791 24.1536 68.3939C24.3171 72.3555 27.4671 75.4805 31.4301 75.6157C33.9766 75.7026 37.2098 75.7895 41.1026 75.8494C41.1026 74.9033 41.117 74.7062 41.1241 74.6077C41.1252 74.5927 41.1262 74.58 41.1269 74.5672C41.1307 74.4964 41.1269 74.4249 41.1026 73.9574C40.6722 65.4867 40.6881 57.1634 41.1206 49.0073C41.1719 48.0571 41.8629 47.2636 42.7964 47.0806C49.0458 45.8788 55.0437 45.7 60.5522 47.0231C61.4164 47.2414 62.0437 47.9878 62.1102 48.877C62.7007 56.9263 62.6556 65.3326 62.1289 73.9772C62.092 74.5729 62.0952 74.623 62.1058 74.7894C62.1147 74.9294 62.1289 75.1515 62.1289 75.8492Z" fill="#FDFDFC" stroke="#FDFDFC" stroke-width="3" stroke-linecap="round" stroke-linejoin="round"/>
</g>
</g>
</g>
</svg>
