<svg width="84" height="84" viewBox="0 0 84 84" fill="none" xmlns="http://www.w3.org/2000/svg">
<g filter="url(#filter0_dd_272_1113)">
<rect x="8" y="6" width="68" height="68" rx="34" fill="#CB5300"/>
<rect x="10.5" y="8.5" width="63" height="63" rx="31.5" stroke="white" stroke-width="5"/>
<path fill-rule="evenodd" clip-rule="evenodd" d="M30.8291 42.3742C30.312 40.8583 30.0398 39.2429 30.0398 37.5937C30.0398 34.8821 30.2444 32.58 30.4071 31.1819C30.5521 29.9261 31.3414 28.9123 32.5756 28.6392C33.9989 28.3243 36.7576 27.9525 41.8938 27.9525C47.0297 27.9525 49.7878 28.3243 51.212 28.6392C52.4459 28.9123 53.2352 29.9261 53.3804 31.1819C53.5429 32.58 53.7475 34.8821 53.7475 37.5937C53.7475 39.1755 53.4971 40.7263 53.0203 42.1882L52.9474 41.5333C52.9427 41.4929 52.9341 41.4532 52.9211 41.4147C52.4814 40.1006 51.3201 39.1913 49.9483 39.1187C49.8965 39.1162 49.8449 39.1134 49.7934 39.1107C50.5095 38.4306 50.9586 37.4717 50.9586 36.416C50.9586 34.3739 49.2786 32.6939 47.2368 32.6939C45.1947 32.6939 43.5147 34.3739 43.5147 36.416C43.5147 36.709 43.5494 36.9949 43.6148 37.2693C43.1224 37.0276 42.5708 36.8914 41.9897 36.8914C41.4086 36.8914 40.8569 37.0276 40.3649 37.2693C40.4303 36.9949 40.4649 36.709 40.4649 36.416C40.4649 34.3739 38.7847 32.6939 36.7429 32.6939C34.7011 32.6939 33.0208 34.3739 33.0208 36.416C33.0208 37.4717 33.4699 38.4306 34.186 39.1107C34.1347 39.1134 34.0829 39.1162 34.031 39.1187C32.5265 39.1983 31.2737 40.285 30.9516 41.8078L30.8291 42.3742ZM52.1093 44.3625C51.1219 46.2651 49.7124 47.9326 47.9473 49.2045C47.7355 48.0657 47.2664 46.1253 47.1686 45.5751C46.9393 44.2859 45.9069 43.3384 44.6042 43.2522C45.2868 42.576 45.7118 41.6404 45.7118 40.6135C45.7118 40.4555 45.7018 40.2997 45.6821 40.1467C47.2013 40.1594 48.468 40.1899 49.8879 40.265C50.7687 40.3116 51.5116 40.891 51.8135 41.7235L52.103 44.3198C52.1043 44.3342 52.1066 44.3486 52.1093 44.3625ZM46.9321 49.8685C46.707 50.0015 46.4772 50.1285 46.2424 50.2491C44.6278 51.0805 43.0426 51.6602 41.8938 51.6602C40.7447 51.6602 39.1595 51.08 37.5449 50.2491C37.3051 50.1257 37.0703 49.9957 36.8402 49.8596L36.9439 49.8726C37.0609 48.9445 37.8255 46.4284 37.9413 45.776C38.078 45.007 38.6932 44.4381 39.473 44.3963C40.1134 44.3619 40.9457 44.3356 41.9897 44.3356C43.0337 44.3356 43.8663 44.3619 44.5066 44.3963C45.2865 44.4381 45.9019 45.007 46.0386 45.776C46.1525 46.4167 46.7794 48.9661 46.8944 49.8732L46.9321 49.8685ZM35.8912 49.2411C34.0579 47.9331 32.6044 46.1999 31.6047 44.2194L32.0738 42.0479L32.0744 42.0454C32.2864 41.0432 33.1015 40.3171 34.0915 40.265C35.5114 40.1899 36.7784 40.1594 38.2973 40.1467C38.2779 40.2997 38.2676 40.4555 38.2676 40.6135C38.2676 41.6404 38.6929 42.576 39.3752 43.2522C38.0727 43.3384 37.0406 44.2859 36.8114 45.5751C36.7104 46.1425 36.1291 48.102 35.8912 49.2411ZM41.9897 43.1876C40.5775 43.1876 39.4154 42.0257 39.4154 40.6135C39.4154 39.2013 40.5775 38.0392 41.9897 38.0392C43.4019 38.0392 44.564 39.2013 44.564 40.6135C44.564 42.0257 43.4019 43.1876 41.9897 43.1876ZM44.6624 36.416C44.6624 35.0038 45.8246 33.8417 47.2368 33.8417C48.649 33.8417 49.8108 35.0038 49.8108 36.416C49.8108 37.8282 48.649 38.9901 47.2368 38.9901C45.8246 38.9901 44.6624 37.8282 44.6624 36.416ZM39.3172 36.416C39.3172 37.8282 38.1551 38.9901 36.7429 38.9901C35.3307 38.9901 34.1685 37.8282 34.1685 36.416C34.1685 35.0038 35.3307 33.8417 36.7429 33.8417C38.1551 33.8417 39.3172 35.0038 39.3172 36.416Z" fill="#FAEEE6"/>
</g>
<defs>
<filter id="filter0_dd_272_1113" x="0" y="0" width="84" height="84" filterUnits="userSpaceOnUse" color-interpolation-filters="sRGB">
<feFlood flood-opacity="0" result="BackgroundImageFix"/>
<feColorMatrix in="SourceAlpha" type="matrix" values="0 0 0 0 0 0 0 0 0 0 0 0 0 0 0 0 0 0 127 0" result="hardAlpha"/>
<feMorphology radius="2" operator="dilate" in="SourceAlpha" result="effect1_dropShadow_272_1113"/>
<feOffset dy="2"/>
<feGaussianBlur stdDeviation="3"/>
<feColorMatrix type="matrix" values="0 0 0 0 0 0 0 0 0 0 0 0 0 0 0 0 0 0 0.15 0"/>
<feBlend mode="normal" in2="BackgroundImageFix" result="effect1_dropShadow_272_1113"/>
<feColorMatrix in="SourceAlpha" type="matrix" values="0 0 0 0 0 0 0 0 0 0 0 0 0 0 0 0 0 0 127 0" result="hardAlpha"/>
<feOffset dy="1"/>
<feGaussianBlur stdDeviation="1"/>
<feColorMatrix type="matrix" values="0 0 0 0 0 0 0 0 0 0 0 0 0 0 0 0 0 0 0.3 0"/>
<feBlend mode="normal" in2="effect1_dropShadow_272_1113" result="effect2_dropShadow_272_1113"/>
<feBlend mode="normal" in="SourceGraphic" in2="effect2_dropShadow_272_1113" result="shape"/>
</filter>
</defs>
</svg>
