<svg width="103" height="121" viewBox="0 0 103 121" fill="none" xmlns="http://www.w3.org/2000/svg">
<g id="coletivo">
<path id="backgroundIcon" d="M101.5 51.2311C101.5 86.9243 64.4167 112.367 54.1222 118.744C53.3378 119.238 52.4284 119.5 51.5 119.5C50.5716 119.5 49.6622 119.238 48.8778 118.744C38.5861 112.367 1.5 86.9243 1.5 51.2311C1.5 23.7657 23.8861 1.5 51.5 1.5C79.1139 1.5 101.5 23.7657 101.5 51.2311Z" fill="#CB5300" stroke="#FDFDFC" stroke-width="3" stroke-linecap="round" stroke-linejoin="round"/>
<g id="coletivo_2">
<path id="symbolIcon" fill-rule="evenodd" clip-rule="evenodd" d="M22.7748 64.605C21.4453 60.7071 20.7453 56.5531 20.7453 52.3123C20.7453 45.3397 21.2714 39.42 21.6899 35.825C22.0627 32.5957 24.0922 29.9887 27.2659 29.2865C30.9258 28.4767 38.0196 27.5208 51.227 27.5208C64.4336 27.5208 71.526 28.4767 75.188 29.2865C78.361 29.9887 80.3905 32.5957 80.7641 35.825C81.1818 39.42 81.7079 45.3397 81.7079 52.3123C81.7079 56.3799 81.0642 60.3677 79.838 64.1267L79.6506 62.4429C79.6384 62.3388 79.6163 62.2369 79.5828 62.1378C78.4522 58.7588 75.466 56.4206 71.9387 56.2338C71.8054 56.2274 71.6728 56.2202 71.5402 56.2131C73.3816 54.4644 74.5364 51.9986 74.5364 49.284C74.5364 44.033 70.2164 39.713 64.9661 39.713C59.7151 39.713 55.3951 44.033 55.3951 49.284C55.3951 50.0375 55.4842 50.7725 55.6525 51.4782C54.3864 50.8566 52.9678 50.5066 51.4736 50.5066C49.9794 50.5066 48.5608 50.8566 47.2955 51.4782C47.4637 50.7725 47.5528 50.0375 47.5528 49.284C47.5528 44.033 43.2321 39.713 37.9818 39.713C32.7315 39.713 28.4108 44.033 28.4108 49.284C28.4108 51.9986 29.5657 54.4644 31.407 56.2131C31.2751 56.2202 31.1418 56.2274 31.0085 56.2338C27.1398 56.4384 23.9183 59.2328 23.0899 63.1486L22.7748 64.605ZM77.4956 69.7177C74.9563 74.6102 71.3321 78.8981 66.7932 82.1688C66.2486 79.2403 65.0424 74.2509 64.7908 72.8358C64.2012 69.521 61.5465 67.0844 58.1967 66.8627C59.9518 65.124 61.0446 62.7181 61.0446 60.0776C61.0446 59.6712 61.019 59.2706 60.9684 58.8771C64.8749 58.9099 68.132 58.9883 71.7833 59.1815C74.0481 59.3013 75.9586 60.7912 76.7349 62.9319L77.4792 69.608C77.4827 69.645 77.4884 69.6821 77.4956 69.7177ZM64.1827 83.8761C63.6038 84.2183 63.0129 84.5448 62.4091 84.8549C58.2573 86.9928 54.1811 88.4834 51.227 88.4834C48.2721 88.4834 44.1959 86.9913 40.0442 84.8549C39.4275 84.5376 38.8237 84.2033 38.232 83.8533L38.4986 83.8868C38.7995 81.5001 40.7656 75.0301 41.0636 73.3527C41.415 71.3752 42.9969 69.9124 45.0022 69.8047C46.6489 69.7163 48.7889 69.6486 51.4736 69.6486C54.1583 69.6486 56.299 69.7163 57.9458 69.8047C59.9511 69.9124 61.5337 71.3752 61.8851 73.3527C62.1781 75.0001 63.7899 81.5557 64.0857 83.8882L64.1827 83.8761ZM35.7919 82.2629C31.0777 78.8995 27.3401 74.4427 24.7695 69.3499L25.9756 63.766L25.9771 63.7596C26.5224 61.1825 28.6183 59.3155 31.1639 59.1815C34.8152 58.9883 38.0731 58.9099 41.9789 58.8771C41.929 59.2706 41.9026 59.6712 41.9026 60.0776C41.9026 62.7181 42.9962 65.124 44.7505 66.8627C41.4015 67.0844 38.7474 69.521 38.1579 72.8358C37.8984 74.2951 36.4035 79.3337 35.7919 82.2629ZM51.4736 66.6966C47.8423 66.6966 44.8539 63.709 44.8539 60.0776C44.8539 56.4462 47.8423 53.4579 51.4736 53.4579C55.105 53.4579 58.0933 56.4462 58.0933 60.0776C58.0933 63.709 55.105 66.6966 51.4736 66.6966ZM58.3464 49.284C58.3464 45.6526 61.3348 42.6643 64.9661 42.6643C68.5975 42.6643 71.5851 45.6526 71.5851 49.284C71.5851 52.9154 68.5975 55.903 64.9661 55.903C61.3348 55.903 58.3464 52.9154 58.3464 49.284ZM44.6015 49.284C44.6015 52.9154 41.6132 55.903 37.9818 55.903C34.3504 55.903 31.3621 52.9154 31.3621 49.284C31.3621 45.6526 34.3504 42.6643 37.9818 42.6643C41.6132 42.6643 44.6015 45.6526 44.6015 49.284Z" fill="#FDFDFC"/>
</g>
</g>
</svg>
