<svg width="103" height="121" viewBox="0 0 103 121" fill="none" xmlns="http://www.w3.org/2000/svg">
<g id="coletivo_cultural">
<path id="backgroundIcon" d="M101.5 51.2311C101.5 86.9243 64.4167 112.367 54.1222 118.744C53.3378 119.238 52.4284 119.5 51.5 119.5C50.5716 119.5 49.6622 119.238 48.8778 118.744C38.5861 112.367 1.5 86.9243 1.5 51.2311C1.5 23.7657 23.8861 1.5 51.5 1.5C79.1139 1.5 101.5 23.7657 101.5 51.2311Z" fill="#CB5300" stroke="#FDFDFC" stroke-width="3" stroke-linecap="round" stroke-linejoin="round"/>
<g id="coletivo_cultural_2">
<g id="symbolIcon">
<path id="symbolIcon_2" d="M74.1118 59.5252C68.4788 59.5269 62.7327 59.0021 60.1229 60.307C57.3742 61.6785 55.5079 65.5325 57.2253 69.7192C60.5845 77.9054 61.5708 78.7014 60.8456 81.6638C60.1229 84.6246 56.4169 85.6459 51.4326 85.6459C33.035 85.6459 18.1212 70.7355 18.1212 52.3428C18.1212 33.9501 33.0333 19.0397 51.4326 19.0397C68.3166 19.0397 82.0785 32.1013 84.3881 47.8883C85.3154 54.2407 80.5324 59.5236 74.1118 59.5252ZM46.9989 36.6099C46.9989 41.9102 51.3603 46.2715 56.6606 46.2715C61.9609 46.2715 66.3223 41.9102 66.3223 36.6099C66.3223 31.3096 61.9609 26.9482 56.6606 26.9482C51.3603 26.9482 46.9989 31.3096 46.9989 36.6099ZM26.3823 48.5038C26.3823 53.3691 30.3861 57.3728 35.2514 57.3728C40.1168 57.3728 44.1205 53.3691 44.1205 48.5038C44.1205 43.6384 40.1168 39.6347 35.2514 39.6347C30.3861 39.6347 26.3823 43.6384 26.3823 48.5038ZM34.3116 69.1195C34.3116 73.1149 37.5992 76.4026 41.5947 76.4026C45.5901 76.4026 48.8785 73.1149 48.8785 69.1195C48.8785 65.1241 45.5901 61.8365 41.5947 61.8365C37.5992 61.8365 34.3116 65.1241 34.3116 69.1195Z" fill="#FDFDFC"/>
</g>
</g>
</g>
</svg>
