<svg width="103" height="121" viewBox="0 0 103 121" fill="none" xmlns="http://www.w3.org/2000/svg">
<g id="companhia">
<path id="backgroundIcon" d="M101.5 51.2311C101.5 86.9243 64.4167 112.367 54.1222 118.744C53.3378 119.238 52.4284 119.5 51.5 119.5C50.5716 119.5 49.6622 119.238 48.8778 118.744C38.5861 112.367 1.5 86.9243 1.5 51.2311C1.5 23.7657 23.8861 1.5 51.5 1.5C79.1139 1.5 101.5 23.7657 101.5 51.2311Z" fill="#CB5300" stroke="#FDFDFC" stroke-width="3" stroke-linecap="round" stroke-linejoin="round"/>
<g id="companhia_2">
<g id="symbolIcon">
<path id="Rectangle-57" fill-rule="evenodd" clip-rule="evenodd" d="M36.174 80.9999H27.4135C25.2613 81.0098 23.4628 79.2982 23.3765 77.1568C23.1919 72.5074 22.9288 63.8674 22.9288 52.485C22.9288 43.1728 23.281 36.079 23.6111 31.4831C23.8463 27.8753 26.7213 24.9482 30.3391 24.6324C33.9733 24.2988 38.8715 23.9702 44.069 23.9702C49.2944 23.9702 54.216 24.3016 57.8581 24.6381C61.446 24.9446 64.301 27.8432 64.5391 31.4204C64.8656 35.9286 65.2092 42.9432 65.2092 52.485C65.2092 64.169 64.9512 72.63 64.7672 77.1732C64.6789 79.3075 62.8838 81.0127 60.7381 80.9999H51.8842C52.0126 80.8174 52.1002 80.6056 52.1366 80.3754L52.1437 80.3682L52.1516 80.2349L52.153 80.2043C52.2107 78.7158 52.2585 76.5829 52.2585 73.5824C52.2585 70.582 52.2107 68.4483 52.153 66.9606C52.0439 64.216 50.4214 61.9683 47.7011 61.5919L47.6883 61.5905C46.4857 61.4344 45.2731 61.361 44.0605 61.3702C42.8593 61.3617 41.6495 61.4351 40.4498 61.5905L40.437 61.5919C37.7166 61.9683 36.0941 64.216 35.9851 66.9606C35.9273 68.4483 35.8796 70.5812 35.8796 73.5803C35.8731 75.8344 35.9109 78.0885 35.9929 80.3412C36.0022 80.58 36.0663 80.8031 36.174 80.9999ZM35.2088 50.7877V53.4695C35.2088 54.2893 35.8746 54.9544 36.6944 54.9544C37.5142 54.9544 38.1793 54.2893 38.1793 53.4695V50.7877C38.1793 49.9679 37.5142 49.302 36.6944 49.302C35.8746 49.302 35.2088 49.9679 35.2088 50.7877ZM49.9588 50.7877V53.4695C49.9588 54.2893 50.6239 54.9544 51.4437 54.9544C52.2635 54.9544 52.9293 54.2893 52.9293 53.4695V50.7877C52.9293 49.9679 52.2635 49.302 51.4437 49.302C50.6239 49.302 49.9588 49.9679 49.9588 50.7877ZM49.9588 36.0376V38.7195C49.9588 39.5393 50.6239 40.2051 51.4437 40.2051C52.2635 40.2051 52.9293 39.5393 52.9293 38.7195V36.0376C52.9293 35.2185 52.2635 34.5527 51.4437 34.5527C50.6239 34.5527 49.9588 35.2185 49.9588 36.0376ZM35.2088 36.0376V38.7195C35.2088 39.5393 35.8746 40.2051 36.6944 40.2051C37.5142 40.2051 38.1793 39.5393 38.1793 38.7195V36.0376C38.1793 35.2185 37.5142 34.5527 36.6944 34.5527C35.8746 34.5527 35.2088 35.2185 35.2088 36.0376Z" fill="#FDFDFC"/>
<path id="Subtract" fill-rule="evenodd" clip-rule="evenodd" d="M66.5081 41.4163C66.4945 40.918 66.4796 40.4311 66.4639 39.9563C68.3936 40.0069 70.322 40.1053 72.2481 40.2507C76.2131 40.5501 79.2884 43.9355 79.5622 48.247C79.7682 51.4677 79.9585 55.73 79.9585 60.4585C79.9585 66.6198 79.796 72.3157 79.667 75.8665V75.8686C79.5593 78.7279 77.3616 81.0127 74.7368 80.9992L66.2308 81.0854C66.2308 81.0854 66.2258 76.6792 66.2557 75.8929V75.8914C66.4197 71.4773 66.6492 63.2565 66.6492 51.9033C66.6492 48.5799 66.61 45.5702 66.5459 42.8748C66.5345 42.3779 66.5216 41.8917 66.5081 41.4163Z" fill="#FDFDFC"/>
</g>
</g>
</g>
</svg>
