<svg width="84" height="84" viewBox="0 0 84 84" fill="none" xmlns="http://www.w3.org/2000/svg">
<g filter="url(#filter0_dd_272_1098)">
<rect x="8" y="6" width="68" height="68" rx="34" fill="#CB5300"/>
<rect x="10.5" y="8.5" width="63" height="63" rx="31.5" stroke="white" stroke-width="5"/>
<path fill-rule="evenodd" clip-rule="evenodd" d="M36.0398 51.0832H32.633C31.796 51.0871 31.0966 50.4215 31.063 49.5887C30.9912 47.7806 30.8889 44.4206 30.8889 39.9941C30.8889 36.3727 31.0259 33.614 31.1542 31.8267C31.2457 30.4237 32.3638 29.2854 33.7707 29.1626C35.184 29.0328 37.0888 28.905 39.1101 28.905C41.1422 28.905 43.0562 29.0339 44.4725 29.1648C45.8678 29.284 46.9781 30.4112 47.0707 31.8023C47.1977 33.5555 47.3313 36.2834 47.3313 39.9941C47.3313 44.5379 47.2309 47.8283 47.1594 49.5951C47.125 50.4251 46.427 51.0882 45.5925 51.0832H42.1494C42.1993 51.0123 42.2334 50.9299 42.2475 50.8404L42.2503 50.8376L42.2533 50.7858L42.2539 50.7739C42.2763 50.195 42.2949 49.3655 42.2949 48.1987C42.2949 47.0318 42.2763 46.2021 42.2539 45.6235C42.2115 44.5562 41.5805 43.6821 40.5226 43.5357L40.5176 43.5352C40.0499 43.4745 39.5783 43.4459 39.1068 43.4495C38.6396 43.4462 38.1692 43.4747 37.7026 43.5352L37.6976 43.5357C36.6397 43.6821 36.0088 44.5562 35.9663 45.6235C35.9439 46.2021 35.9253 47.0316 35.9253 48.1979C35.9228 49.0745 35.9375 49.951 35.9694 50.8271C35.973 50.92 35.9979 51.0067 36.0398 51.0832ZM35.6644 39.3341V40.377C35.6644 40.6958 35.9234 40.9545 36.2422 40.9545C36.561 40.9545 36.8196 40.6958 36.8196 40.377V39.3341C36.8196 39.0152 36.561 38.7563 36.2422 38.7563C35.9234 38.7563 35.6644 39.0152 35.6644 39.3341ZM41.4006 39.3341V40.377C41.4006 40.6958 41.6592 40.9545 41.978 40.9545C42.2968 40.9545 42.5558 40.6958 42.5558 40.377V39.3341C42.5558 39.0152 42.2968 38.7563 41.978 38.7563C41.6592 38.7563 41.4006 39.0152 41.4006 39.3341ZM41.4006 33.5979V34.6409C41.4006 34.9597 41.6592 35.2186 41.978 35.2186C42.2968 35.2186 42.5558 34.9597 42.5558 34.6409V33.5979C42.5558 33.2794 42.2968 33.0205 41.978 33.0205C41.6592 33.0205 41.4006 33.2794 41.4006 33.5979ZM35.6644 33.5979V34.6409C35.6644 34.9597 35.9234 35.2186 36.2422 35.2186C36.561 35.2186 36.8196 34.9597 36.8196 34.6409V33.5979C36.8196 33.2794 36.561 33.0205 36.2422 33.0205C35.9234 33.0205 35.6644 33.2794 35.6644 33.5979Z" fill="#FAEEE6"/>
<path fill-rule="evenodd" clip-rule="evenodd" d="M47.8365 35.6896C47.8312 35.4958 47.8254 35.3065 47.8193 35.1218C48.5697 35.1415 49.3196 35.1798 50.0687 35.2363C51.6107 35.3528 52.8066 36.6693 52.9131 38.346C52.9932 39.5985 53.0672 41.256 53.0672 43.0949C53.0672 45.491 53.004 47.706 52.9538 49.0869V49.0877C52.912 50.1997 52.0573 51.0882 51.0365 51.0829L47.7286 51.1165C47.7286 51.1165 47.7267 49.4029 47.7383 49.0972V49.0966C47.8021 47.38 47.8914 44.183 47.8914 39.7679C47.8914 38.4754 47.8761 37.305 47.8512 36.2568C47.8467 36.0636 47.8417 35.8745 47.8365 35.6896Z" fill="#FAEEE6"/>
</g>
<defs>
<filter id="filter0_dd_272_1098" x="0" y="0" width="84" height="84" filterUnits="userSpaceOnUse" color-interpolation-filters="sRGB">
<feFlood flood-opacity="0" result="BackgroundImageFix"/>
<feColorMatrix in="SourceAlpha" type="matrix" values="0 0 0 0 0 0 0 0 0 0 0 0 0 0 0 0 0 0 127 0" result="hardAlpha"/>
<feMorphology radius="2" operator="dilate" in="SourceAlpha" result="effect1_dropShadow_272_1098"/>
<feOffset dy="2"/>
<feGaussianBlur stdDeviation="3"/>
<feColorMatrix type="matrix" values="0 0 0 0 0 0 0 0 0 0 0 0 0 0 0 0 0 0 0.15 0"/>
<feBlend mode="normal" in2="BackgroundImageFix" result="effect1_dropShadow_272_1098"/>
<feColorMatrix in="SourceAlpha" type="matrix" values="0 0 0 0 0 0 0 0 0 0 0 0 0 0 0 0 0 0 127 0" result="hardAlpha"/>
<feOffset dy="1"/>
<feGaussianBlur stdDeviation="1"/>
<feColorMatrix type="matrix" values="0 0 0 0 0 0 0 0 0 0 0 0 0 0 0 0 0 0 0.3 0"/>
<feBlend mode="normal" in2="effect1_dropShadow_272_1098" result="effect2_dropShadow_272_1098"/>
<feBlend mode="normal" in="SourceGraphic" in2="effect2_dropShadow_272_1098" result="shape"/>
</filter>
</defs>
</svg>
