<svg width="103" height="121" viewBox="0 0 103 121" fill="none" xmlns="http://www.w3.org/2000/svg">
<g id="consultoria">
<path id="backgroundIcon" d="M101.5 51.2311C101.5 86.9243 64.4167 112.367 54.1222 118.744C53.3378 119.238 52.4284 119.5 51.5 119.5C50.5716 119.5 49.6622 119.238 48.8778 118.744C38.5861 112.367 1.5 86.9243 1.5 51.2311C1.5 23.7657 23.8861 1.5 51.5 1.5C79.1139 1.5 101.5 23.7657 101.5 51.2311Z" fill="#CB5300" stroke="#FDFDFC" stroke-width="3" stroke-linecap="round" stroke-linejoin="round"/>
<g id="consultoria_2">
<g id="symbolIcon">
<g id="Subtract">
<path id="Vector" fill-rule="evenodd" clip-rule="evenodd" d="M41.4762 20.7662C40.8188 22.0858 39.9467 23.9923 39.3653 25.9194C34.2778 26.2085 30.5939 26.6553 28.022 27.079C24.0513 27.7325 21.3859 30.9642 21.0113 34.7804C20.7214 37.7254 20.4053 41.9099 20.2628 47.0933C20.9202 47.3064 21.7717 47.5796 22.7729 47.8957C25.241 48.6751 28.6168 49.7135 32.2485 50.7511C35.8842 51.7903 39.7574 52.8224 43.2259 53.5931C46.7444 54.3749 49.6814 54.8493 51.5206 54.8493C53.3598 54.8493 56.2968 54.3749 59.8152 53.5931C63.283 52.8224 67.1562 51.7903 70.7919 50.7511C74.4244 49.7135 77.7994 48.6751 80.2675 47.8957C81.2695 47.5796 82.1202 47.3064 82.7784 47.0933C82.6358 41.9099 82.319 37.7254 82.0299 34.7804C81.6545 30.9642 78.9891 27.7325 75.0192 27.079C72.4465 26.6553 68.7626 26.2085 63.6751 25.9194C63.0945 23.9923 62.2216 22.0858 61.5642 20.7662C60.5471 18.725 58.6097 17.1852 56.1986 16.8557C55.0018 16.6917 53.4192 16.5507 51.5206 16.5507C49.6212 16.5507 48.0394 16.6917 46.8418 16.8557C44.4307 17.1852 42.4933 18.725 41.4762 20.7662ZM51.5206 22.1214C49.8968 22.1214 48.5677 22.2418 47.5966 22.3749C47.1602 22.4343 46.7269 22.7194 46.4624 23.2501C46.0996 23.978 45.7091 24.8177 45.3606 25.6778C47.2648 25.6295 49.3154 25.6034 51.5206 25.6034C53.725 25.6034 55.7756 25.6295 57.6806 25.6778C57.3313 24.8177 56.9408 23.978 56.578 23.2501C56.3135 22.7194 55.881 22.4343 55.4438 22.3749C54.4727 22.2418 53.1436 22.1214 51.5206 22.1214Z" fill="#FDFDFC"/>
<path id="Vector_2" d="M82.8513 51.4584C82.4457 51.5883 82.003 51.7293 81.5261 51.8798C79.0335 52.6671 75.6188 53.7174 71.9396 54.7685C68.2636 55.8188 64.3032 56.8755 60.7214 57.6715C57.1887 58.4565 53.8588 59.0268 51.5206 59.0268C49.1816 59.0268 45.8517 58.4565 42.3198 57.6715C38.7372 56.8755 34.7768 55.8188 31.1008 54.7685C27.4216 53.7174 24.0077 52.6671 21.5151 51.8798C21.0382 51.7293 20.5947 51.5883 20.1891 51.4584C20.1867 51.8869 20.1852 52.321 20.1852 52.7598C20.1852 60.599 20.6224 66.786 21.0113 70.74C21.3859 74.5563 24.0513 77.7872 28.022 78.4414C32.3119 79.1479 39.6941 79.9171 51.5206 79.9171C63.3463 79.9171 70.7293 79.1479 75.0192 78.4414C78.9891 77.7872 81.6544 74.5563 82.0299 70.74C82.4188 66.786 82.8552 60.599 82.8552 52.7598C82.8552 52.321 82.8537 51.8869 82.8513 51.4584Z" fill="#FDFDFC"/>
</g>
</g>
</g>
</g>
</svg>
