<svg width="103" height="121" viewBox="0 0 103 121" fill="none" xmlns="http://www.w3.org/2000/svg">
<g id="coopera&#195;&#167;&#195;&#163;o">
<path id="backgroundIcon" d="M101.5 51.2311C101.5 86.9243 64.4167 112.367 54.1222 118.744C53.3378 119.238 52.4284 119.5 51.5 119.5C50.5716 119.5 49.6622 119.238 48.8778 118.744C38.5861 112.367 1.5 86.9243 1.5 51.2311C1.5 23.7657 23.8861 1.5 51.5 1.5C79.1139 1.5 101.5 23.7657 101.5 51.2311Z" fill="#CB5300" stroke="#FDFDFC" stroke-width="3" stroke-linecap="round" stroke-linejoin="round"/>
<g id="coopera&#195;&#167;&#195;&#163;o_2">
<g id="symbolIcon">
<path id="Union" fill-rule="evenodd" clip-rule="evenodd" d="M77.363 25.1776C77.4438 24.2153 77.9753 23.3099 78.9202 23.0865C79.256 23.0065 79.6054 22.9503 79.9372 22.9503C80.3309 22.9503 80.723 23.0303 81.0778 23.1356C81.9135 23.3836 82.4101 24.1725 82.5638 25.0295C82.8838 26.8196 83.3044 29.896 83.3052 33.6956V33.6964C83.3107 36.8188 83.0034 40.5867 82.216 43.957C82.0172 44.8069 81.7337 45.603 81.1943 46.2382C80.5329 47.0153 79.2283 48.0275 78.3182 48.5028C77.5642 48.8956 76.7071 49.0089 75.8287 49.0525C74.9067 49.0976 73.8588 49.1261 72.6802 49.1261C69.8224 49.1261 67.8089 48.959 66.5099 48.7903C65.3741 48.6422 64.2248 48.2976 63.3828 47.5198C59.363 43.8081 57.5499 40.677 56.1527 38.8394C55.7384 38.2945 55.477 37.6236 55.6228 36.9543C55.7899 36.1875 56.0941 35.5016 56.426 34.925C57.02 33.8921 58.3634 33.8121 59.3693 34.4513C61.4073 35.7463 61.8707 36.7238 61.8707 36.7238C62.0022 37.0327 62.3333 37.2069 62.6628 37.1396C62.9923 37.0731 63.2283 36.7832 63.2283 36.4473C63.2283 35.2331 63.4073 28.0149 63.4176 27.5951C63.5658 25.7384 63.5658 24.1804 63.702 23.0057C63.8192 21.9998 64.4584 21.0921 65.4628 20.9654C65.7131 20.9337 65.9737 20.9139 66.2343 20.9139C66.5091 20.9139 66.7737 20.9273 67.024 20.9495C68.163 21.0525 68.8267 22.136 68.8323 23.2798L68.8473 26.1677V26.1693C68.8529 28.1852 68.86 29.8652 68.8608 29.9483V29.9515C68.8624 30.3412 69.1792 30.6556 69.5689 30.6549C69.9594 30.6541 70.2747 30.338 70.2747 29.9483V29.9452C70.2747 29.1927 70.2683 27.7162 70.2612 26.1638V26.1622C70.2572 24.7143 70.2549 23.0921 70.2564 21.7654C70.2588 20.6374 70.921 19.5832 72.0442 19.4747C72.3159 19.4485 72.6034 19.4319 72.9004 19.4319C73.2925 19.4319 73.6846 19.4596 74.0561 19.5024C75.2069 19.6331 75.946 20.6604 75.9523 21.8184C75.957 22.8109 75.9547 23.9705 75.9491 25.1198C75.942 25.2133 75.9388 25.3067 75.938 25.401L75.8976 30.776V30.78C75.8945 31.1697 76.2073 31.4881 76.597 31.4921C76.9867 31.496 77.306 31.184 77.3115 30.7943V30.7903C77.3131 30.6723 77.3479 27.9634 77.363 25.1776Z" fill="#FDFDFC"/>
<path id="Union1" fill-rule="evenodd" clip-rule="evenodd" d="M25.881 77.1008C25.7994 78.0624 25.2679 78.9677 24.3238 79.1919C23.9871 79.2711 23.6378 79.3273 23.3059 79.3273C22.9131 79.3273 22.5202 79.2481 22.1654 79.1428C21.3305 78.8941 20.8331 78.1059 20.6794 77.2481C20.3594 75.458 19.9388 72.3816 19.9388 68.5828V68.5812C19.9325 65.4588 20.2406 61.6909 21.0279 58.3206C21.2259 57.4707 21.5095 56.6747 22.0489 56.0402C22.7103 55.2624 24.0149 54.2509 24.9257 53.7756C25.679 53.382 26.536 53.2687 27.4145 53.2252C28.3364 53.18 29.3844 53.1515 30.5638 53.1515C33.4216 53.1515 35.4343 53.3194 36.7333 53.4881C37.8699 53.6354 39.0184 53.9808 39.8604 54.7578C43.8802 58.4695 45.6941 61.6014 47.0905 63.4382C47.5055 63.984 47.7661 64.6541 47.6204 65.3242C47.4533 66.0901 47.1491 66.776 46.8172 67.3535C46.2232 68.3863 44.8798 68.4655 43.8739 67.8263C41.8358 66.5313 41.3725 65.5539 41.3725 65.5539C41.241 65.245 40.9099 65.0707 40.5804 65.138C40.2517 65.2054 40.0149 65.4945 40.0149 65.8311C40.0149 67.0454 39.8366 74.2628 39.8263 74.6826C39.6782 76.5392 39.6774 78.0972 39.5412 79.2727C39.4248 80.2778 38.7848 81.1863 37.7804 81.3131C37.5301 81.3448 37.2695 81.3646 37.0089 81.3646C36.7349 81.3646 36.4703 81.3511 36.2192 81.3281C35.0802 81.2252 34.4172 80.1416 34.4109 78.9978L34.3958 76.1099V76.1083C34.3911 74.0925 34.3832 72.4133 34.3832 72.3301V72.3269C34.3808 71.9364 34.064 71.622 33.6743 71.6228C33.2846 71.6236 32.9685 71.9404 32.9685 72.3301L32.9693 72.3333C32.9693 73.0857 32.9749 74.5614 32.982 76.1139V76.1155C32.9859 77.5642 32.9883 79.1855 32.9867 80.5123C32.9852 81.641 32.3222 82.6953 31.199 82.8038C30.9281 82.8299 30.6406 82.8457 30.3428 82.8457C29.9507 82.8457 29.5594 82.818 29.1871 82.776C28.037 82.6454 27.2972 81.618 27.2917 80.46C27.2861 79.4667 27.2885 78.3071 27.2949 77.1586C27.3012 77.0652 27.3052 76.9709 27.3052 76.8774L27.3463 71.5024V71.4984C27.3495 71.1087 27.0358 70.7903 26.6469 70.7863C26.2572 70.7816 25.9372 71.0937 25.9325 71.4834V71.4873C25.9309 71.6054 25.8953 74.3143 25.881 77.1008Z" fill="#FDFDFC"/>
<path id="Union2" fill-rule="evenodd" clip-rule="evenodd" d="M25.6838 25.3742C24.7222 25.2934 23.8169 24.7619 23.5927 23.8178C23.5127 23.4812 23.4573 23.1318 23.4573 22.8C23.4573 22.4063 23.5365 22.0142 23.6418 21.6594C23.8897 20.8245 24.6786 20.3271 25.5365 20.1734C27.3266 19.8534 30.403 19.4328 34.2018 19.4328H34.2034C37.3258 19.4265 41.0929 19.7338 44.464 20.5212C45.3139 20.72 46.1099 21.0035 46.7444 21.5429C47.5222 22.2043 48.5337 23.5089 49.0089 24.4198C49.4018 25.173 49.5159 26.0301 49.5586 26.9085C49.6046 27.8305 49.6331 28.8784 49.6331 30.057C49.6331 32.9148 49.4652 34.9283 49.2965 36.2273C49.1491 37.3631 48.8038 38.5124 48.0268 39.3544C44.3151 43.3742 41.1832 45.1873 39.3464 46.5845C38.8006 46.9988 38.1297 47.2602 37.4604 47.1144C36.6945 46.9473 36.0085 46.6431 35.4311 46.3113C34.3982 45.7172 34.319 44.3738 34.9582 43.3679C36.2533 41.3299 37.2299 40.8665 37.2299 40.8665C37.5396 40.735 37.7131 40.4039 37.6466 40.0744C37.5792 39.7449 37.2893 39.5089 36.9535 39.5089C35.7392 39.5089 28.5218 39.3299 28.102 39.3196C26.2446 39.1715 24.6874 39.1714 23.5119 39.0352C22.5068 38.9188 21.5982 38.2788 21.4715 37.2744C21.4398 37.0241 21.42 36.7635 21.42 36.5029C21.42 36.2289 21.4335 35.9643 21.4565 35.7132C21.5594 34.5742 22.643 33.9113 23.786 33.9049L26.6739 33.8899H26.6755C28.6913 33.8843 30.3713 33.8772 30.4545 33.8764H30.4577C30.8474 33.8748 31.1626 33.558 31.1618 33.1683C31.1602 32.7786 30.8442 32.4625 30.4545 32.4625H30.4513C29.6988 32.4625 28.2232 32.4689 26.6707 32.476H26.6691C25.2204 32.48 23.599 32.4823 22.2715 32.4808C21.1436 32.4784 20.0893 31.8162 19.9808 30.693C19.9547 30.4214 19.9388 30.1338 19.9388 29.8368C19.9388 29.4447 19.9666 29.0526 20.0085 28.6812C20.1392 27.5303 21.1666 26.7913 22.3246 26.7849C23.3171 26.7802 24.4767 26.7825 25.626 26.7881C25.7194 26.7952 25.8129 26.7984 25.9072 26.7992L31.2822 26.8396H31.2862C31.6759 26.8427 31.9943 26.5299 31.9982 26.1402C32.0022 25.7505 31.6901 25.4313 31.3004 25.4257H31.2965C31.1792 25.4241 28.4695 25.3893 25.6838 25.3742Z" fill="#FDFDFC"/>
<path id="Union3" fill-rule="evenodd" clip-rule="evenodd" d="M77.5594 76.7808C78.5218 76.8624 79.4271 77.3939 79.6505 78.338C79.7305 78.6747 79.7867 79.024 79.7867 79.3559C79.7867 79.7487 79.7075 80.1416 79.6014 80.4964C79.3535 81.3313 78.5646 81.8287 77.7075 81.9824C75.9174 82.3024 72.841 82.723 69.0414 82.723H69.0406C65.9182 82.7293 62.1503 82.4212 58.78 81.6347C57.9301 81.4358 57.1341 81.1523 56.4996 80.6129C55.7218 79.9515 54.7095 78.6469 54.2343 77.7361C53.8414 76.9828 53.7281 76.1258 53.6846 75.2473C53.6394 74.3254 53.6109 73.2774 53.6109 72.098C53.6109 69.241 53.778 67.2275 53.9467 65.9285C54.0949 64.7927 54.4402 63.6434 55.2172 62.8014C58.9289 58.7816 62.0608 56.9685 63.8976 55.5713C64.4426 55.157 65.1135 54.8957 65.7828 55.0414C66.5495 55.2085 67.2355 55.5127 67.8121 55.8446C68.8458 56.4386 68.925 57.782 68.2858 58.7879C66.9907 60.826 66.0133 61.2893 66.0133 61.2893C65.7044 61.4208 65.5301 61.7519 65.5974 62.0814C65.664 62.4109 65.9539 62.6469 66.2897 62.6469C67.504 62.6469 74.7222 62.8259 75.142 62.8362C76.9986 62.9836 78.5566 62.9844 79.7321 63.1206C80.7372 63.237 81.645 63.877 81.7717 64.8814C81.8034 65.1317 81.8232 65.3923 81.8232 65.6529C81.8232 65.9269 81.8097 66.1915 81.7875 66.4426C81.6846 67.5816 80.601 68.2446 79.4572 68.2509L76.5693 68.266H76.5677C74.5519 68.2715 72.8727 68.2786 72.7887 68.2794H72.7856C72.3959 68.281 72.0814 68.5978 72.0822 68.9875C72.083 69.3772 72.399 69.6933 72.7887 69.6933H72.7919C73.5444 69.6933 75.0208 69.6869 76.5733 69.6798H76.5749C78.0228 69.6759 79.645 69.6735 80.9717 69.6751C82.0996 69.6766 83.1539 70.3396 83.2624 71.4628C83.2893 71.7345 83.3052 72.0212 83.3052 72.319C83.3052 72.7111 83.2774 73.1032 83.2355 73.4747C83.1048 74.6256 82.0766 75.3646 80.9186 75.3701C79.9262 75.3757 78.7665 75.3733 77.6172 75.3677C77.5238 75.3606 77.4303 75.3574 77.336 75.3566L71.9618 75.3155H71.9578C71.5681 75.3131 71.2489 75.6259 71.245 76.0157C71.241 76.4054 71.5531 76.7246 71.9428 76.7293L71.9467 76.7301C72.0648 76.7309 74.7737 76.7665 77.5594 76.7808Z" fill="#FDFDFC"/>
</g>
</g>
</g>
</svg>
