<svg width="84" height="84" viewBox="0 0 84 84" fill="none" xmlns="http://www.w3.org/2000/svg">
<g filter="url(#filter0_dd_272_1210)">
<rect x="8" y="6" width="68" height="68" rx="34" fill="#CB5300"/>
<rect x="10.5" y="8.5" width="63" height="63" rx="31.5" stroke="white" stroke-width="5"/>
<path fill-rule="evenodd" clip-rule="evenodd" d="M51.052 30.7871C51.0803 30.4503 51.2663 30.1334 51.5971 30.0553C51.7146 30.0273 51.8369 30.0076 51.953 30.0076C52.0908 30.0076 52.228 30.0356 52.3522 30.0724C52.6447 30.1592 52.8185 30.4353 52.8723 30.7353C52.9843 31.3618 53.1315 32.4386 53.1318 33.7684V33.7687C53.1337 34.8615 53.0262 36.1803 52.7506 37.3599C52.681 37.6574 52.5818 37.936 52.393 38.1583C52.1615 38.4303 51.7049 38.7846 51.3864 38.9509C51.1225 39.0884 50.8225 39.1281 50.515 39.1433C50.1923 39.1591 49.8256 39.1691 49.4131 39.1691C48.4128 39.1691 47.7081 39.1106 47.2535 39.0516C46.8559 38.9997 46.4537 38.8791 46.159 38.6069C44.752 37.3078 44.1175 36.2119 43.6284 35.5688C43.4834 35.378 43.392 35.1432 43.443 34.909C43.5015 34.6406 43.6079 34.4005 43.7241 34.1987C43.932 33.8372 44.4022 33.8092 44.7543 34.0329C45.4676 34.4862 45.6297 34.8283 45.6297 34.8283C45.6758 34.9364 45.7916 34.9974 45.907 34.9738C46.0223 34.9505 46.1049 34.8491 46.1049 34.7315C46.1049 34.3065 46.1676 31.7802 46.1712 31.6332C46.223 30.9834 46.223 30.4381 46.2707 30.027C46.3117 29.6749 46.5354 29.3572 46.887 29.3128C46.9746 29.3017 47.0658 29.2948 47.157 29.2948C47.2532 29.2948 47.3458 29.2995 47.4334 29.3073C47.832 29.3433 48.0644 29.7226 48.0663 30.1229L48.0716 31.1337V31.1342C48.0735 31.8398 48.076 32.4278 48.0763 32.4569V32.458C48.0768 32.5944 48.1877 32.7044 48.3241 32.7042C48.4608 32.7039 48.5711 32.5933 48.5711 32.4569V32.4558C48.5711 32.1924 48.5689 31.6756 48.5664 31.1323V31.1317C48.565 30.625 48.5642 30.0572 48.5647 29.5928C48.5656 29.1981 48.7973 28.8291 49.1904 28.7911C49.2855 28.7819 49.3862 28.7761 49.4901 28.7761C49.6274 28.7761 49.7646 28.7858 49.8946 28.8008C50.2974 28.8465 50.5561 29.2061 50.5583 29.6114C50.56 29.9588 50.5591 30.3646 50.5572 30.7669C50.5547 30.7996 50.5536 30.8323 50.5533 30.8653L50.5392 32.7466V32.748C50.5381 32.8844 50.6476 32.9958 50.784 32.9972C50.9204 32.9986 51.0321 32.8894 51.034 32.753V32.7516C51.0346 32.7103 51.0468 31.7621 51.052 30.7871Z" fill="#FAEEE6"/>
<path fill-rule="evenodd" clip-rule="evenodd" d="M33.0334 48.9603C33.0049 49.2968 32.8188 49.6137 32.4884 49.6921C32.3706 49.7199 32.2483 49.7395 32.1321 49.7395C31.9946 49.7395 31.8571 49.7118 31.7329 49.675C31.4407 49.5879 31.2666 49.3121 31.2129 49.0118C31.1009 48.3853 30.9536 47.3085 30.9536 45.979V45.9784C30.9514 44.8856 31.0593 43.5668 31.3348 42.3872C31.4041 42.0897 31.5034 41.8111 31.6922 41.5891C31.9237 41.3168 32.3803 40.9628 32.6991 40.7965C32.9627 40.6587 33.2627 40.619 33.5701 40.6038C33.8928 40.588 34.2596 40.578 34.6724 40.578C35.6726 40.578 36.3771 40.6368 36.8317 40.6958C37.2295 40.7474 37.6315 40.8683 37.9262 41.1402C39.3331 42.4393 39.968 43.5355 40.4567 44.1784C40.602 44.3694 40.6932 44.6039 40.6422 44.8384C40.5837 45.1065 40.4773 45.3466 40.3611 45.5487C40.1532 45.9102 39.683 45.9379 39.3309 45.7142C38.6176 45.2609 38.4554 44.9188 38.4554 44.9188C38.4094 44.8107 38.2935 44.7497 38.1782 44.7733C38.0632 44.7969 37.9803 44.898 37.9803 45.0159C37.9803 45.4409 37.9179 47.967 37.9143 48.1139C37.8624 48.7637 37.8622 49.309 37.8145 49.7204C37.7737 50.0722 37.5497 50.3902 37.1982 50.4346C37.1106 50.4456 37.0194 50.4526 36.9282 50.4526C36.8323 50.4526 36.7397 50.4479 36.6518 50.4398C36.2531 50.4038 36.0211 50.0245 36.0189 49.6242L36.0136 48.6134V48.6129C36.0119 47.9073 36.0092 47.3196 36.0092 47.2905V47.2894C36.0083 47.1527 35.8974 47.0427 35.7611 47.043C35.6247 47.0432 35.514 47.1541 35.514 47.2905L35.5143 47.2916C35.5143 47.555 35.5163 48.0715 35.5188 48.6148V48.6154C35.5201 49.1224 35.521 49.6899 35.5204 50.1543C35.5199 50.5493 35.2878 50.9183 34.8947 50.9563C34.7999 50.9654 34.6993 50.971 34.595 50.971C34.4578 50.971 34.3209 50.9613 34.1906 50.9466C33.788 50.9009 33.5291 50.5413 33.5272 50.136C33.5252 49.7883 33.526 49.3825 33.5283 48.9805C33.5305 48.9478 33.5319 48.9148 33.5319 48.8821L33.5463 47.0008V46.9994C33.5474 46.863 33.4376 46.7516 33.3015 46.7502C33.1651 46.7485 33.0531 46.8578 33.0514 46.9942V46.9955C33.0509 47.0369 33.0384 47.985 33.0334 48.9603Z" fill="#FAEEE6"/>
<path fill-rule="evenodd" clip-rule="evenodd" d="M32.9643 30.8559C32.6278 30.8276 32.3109 30.6416 32.2325 30.3111C32.2045 30.1933 32.1851 30.0711 32.1851 29.9549C32.1851 29.8171 32.2128 29.6799 32.2497 29.5557C32.3364 29.2635 32.6125 29.0894 32.9128 29.0356C33.5393 28.9236 34.6161 28.7764 35.9457 28.7764H35.9462C37.039 28.7742 38.3575 28.8817 39.5374 29.1573C39.8349 29.2269 40.1135 29.3261 40.3356 29.5149C40.6078 29.7464 40.9618 30.203 41.1281 30.5218C41.2657 30.7855 41.3056 31.0854 41.3205 31.3929C41.3366 31.7156 41.3466 32.0823 41.3466 32.4949C41.3466 33.4951 41.2878 34.1998 41.2288 34.6545C41.1772 35.052 41.0563 35.4543 40.7844 35.749C39.4853 37.1559 38.3891 37.7905 37.7462 38.2795C37.5552 38.4245 37.3204 38.516 37.0862 38.465C36.8181 38.4065 36.578 38.3 36.3759 38.1838C36.0144 37.9759 35.9867 37.5057 36.2104 37.1537C36.6637 36.4404 37.0055 36.2782 37.0055 36.2782C37.1139 36.2322 37.1746 36.1163 37.1513 36.001C37.1278 35.8856 37.0263 35.803 36.9087 35.803C36.4838 35.803 33.9577 35.7404 33.8107 35.7368C33.1606 35.6849 32.6156 35.6849 32.2042 35.6372C31.8524 35.5965 31.5344 35.3725 31.49 35.021C31.479 34.9334 31.472 34.8421 31.472 34.7509C31.472 34.655 31.4767 34.5624 31.4848 34.4745C31.5208 34.0759 31.9001 33.8438 32.3001 33.8416L33.3109 33.8364H33.3114C34.017 33.8344 34.605 33.8319 34.6341 33.8316H34.6352C34.7716 33.8311 34.8819 33.7202 34.8817 33.5838C34.8811 33.4474 34.7705 33.3368 34.6341 33.3368H34.633C34.3696 33.3368 33.8531 33.339 33.3098 33.3415H33.3092C32.8022 33.3429 32.2347 33.3437 31.77 33.3432C31.3753 33.3423 31.0063 33.1106 30.9683 32.7175C30.9592 32.6224 30.9536 32.5217 30.9536 32.4178C30.9536 32.2806 30.9633 32.1433 30.978 32.0133C31.0238 31.6105 31.3833 31.3518 31.7886 31.3496C32.136 31.348 32.5419 31.3488 32.9441 31.3507C32.9768 31.3532 33.0095 31.3543 33.0425 31.3546L34.9238 31.3688H34.9252C35.0616 31.3699 35.173 31.2604 35.1744 31.124C35.1758 30.9876 35.0666 30.8758 34.9302 30.8739H34.9288C34.8878 30.8734 33.9394 30.8612 32.9643 30.8559Z" fill="#FAEEE6"/>
<path fill-rule="evenodd" clip-rule="evenodd" d="M51.1207 48.8483C51.4576 48.8768 51.7745 49.0628 51.8526 49.3933C51.8806 49.5111 51.9003 49.6334 51.9003 49.7495C51.9003 49.887 51.8726 50.0245 51.8354 50.1487C51.7487 50.4409 51.4726 50.615 51.1726 50.6688C50.5461 50.7808 49.4693 50.928 48.1394 50.928H48.1392C47.0463 50.9302 45.7276 50.8224 44.548 50.5471C44.2505 50.4775 43.9719 50.3783 43.7498 50.1895C43.4776 49.958 43.1233 49.5014 42.9569 49.1826C42.8194 48.919 42.7798 48.619 42.7646 48.3116C42.7487 47.9889 42.7388 47.6221 42.7388 47.2093C42.7388 46.2093 42.7973 45.5046 42.8563 45.05C42.9082 44.6524 43.029 44.2502 43.301 43.9555C44.6001 42.5485 45.6962 41.914 46.3391 41.4249C46.5299 41.2799 46.7647 41.1885 46.9989 41.2395C47.2673 41.298 47.5074 41.4044 47.7092 41.5206C48.071 41.7285 48.0987 42.1987 47.875 42.5508C47.4217 43.2641 47.0796 43.4262 47.0796 43.4262C46.9715 43.4723 46.9105 43.5881 46.9341 43.7035C46.9573 43.8188 47.0588 43.9014 47.1764 43.9014C47.6013 43.9014 50.1277 43.9641 50.2746 43.9677C50.9245 44.0192 51.4698 44.0195 51.8812 44.0672C52.233 44.1079 52.5507 44.3319 52.595 44.6835C52.6061 44.7711 52.6131 44.8623 52.6131 44.9535C52.6131 45.0494 52.6084 45.142 52.6006 45.2299C52.5646 45.6285 52.1853 45.8606 51.785 45.8628L50.7742 45.8681H50.7737C50.0681 45.87 49.4804 45.8725 49.451 45.8728H49.4499C49.3135 45.8733 49.2034 45.9842 49.2037 46.1206C49.204 46.257 49.3146 46.3676 49.451 46.3676H49.4521C49.7155 46.3676 50.2322 46.3654 50.7756 46.3629H50.7762C51.2829 46.3615 51.8507 46.3607 52.315 46.3613C52.7098 46.3618 53.0788 46.5939 53.1168 46.987C53.1262 47.082 53.1318 47.1824 53.1318 47.2866C53.1318 47.4239 53.1221 47.5611 53.1074 47.6911C53.0616 48.0939 52.7018 48.3526 52.2965 48.3545C51.9491 48.3565 51.5432 48.3556 51.141 48.3537C51.1083 48.3512 51.0756 48.3501 51.0426 48.3498L49.1616 48.3354H49.1602C49.0238 48.3346 48.9121 48.4441 48.9107 48.5805C48.9093 48.7169 49.0185 48.8286 49.1549 48.8302L49.1563 48.8305C49.1976 48.8308 50.1457 48.8433 51.1207 48.8483Z" fill="#FAEEE6"/>
</g>
<defs>
<filter id="filter0_dd_272_1210" x="0" y="0" width="84" height="84" filterUnits="userSpaceOnUse" color-interpolation-filters="sRGB">
<feFlood flood-opacity="0" result="BackgroundImageFix"/>
<feColorMatrix in="SourceAlpha" type="matrix" values="0 0 0 0 0 0 0 0 0 0 0 0 0 0 0 0 0 0 127 0" result="hardAlpha"/>
<feMorphology radius="2" operator="dilate" in="SourceAlpha" result="effect1_dropShadow_272_1210"/>
<feOffset dy="2"/>
<feGaussianBlur stdDeviation="3"/>
<feColorMatrix type="matrix" values="0 0 0 0 0 0 0 0 0 0 0 0 0 0 0 0 0 0 0.15 0"/>
<feBlend mode="normal" in2="BackgroundImageFix" result="effect1_dropShadow_272_1210"/>
<feColorMatrix in="SourceAlpha" type="matrix" values="0 0 0 0 0 0 0 0 0 0 0 0 0 0 0 0 0 0 127 0" result="hardAlpha"/>
<feOffset dy="1"/>
<feGaussianBlur stdDeviation="1"/>
<feColorMatrix type="matrix" values="0 0 0 0 0 0 0 0 0 0 0 0 0 0 0 0 0 0 0.3 0"/>
<feBlend mode="normal" in2="effect1_dropShadow_272_1210" result="effect2_dropShadow_272_1210"/>
<feBlend mode="normal" in="SourceGraphic" in2="effect2_dropShadow_272_1210" result="shape"/>
</filter>
</defs>
</svg>
