<svg width="103" height="121" viewBox="0 0 103 121" fill="none" xmlns="http://www.w3.org/2000/svg">
<g id="espaco_comunitario">
<path id="backgroundIcon" d="M101.5 51.2311C101.5 86.9243 64.4167 112.367 54.1222 118.744C53.3378 119.238 52.4284 119.5 51.5 119.5C50.5716 119.5 49.6622 119.238 48.8778 118.744C38.5861 112.367 1.5 86.9243 1.5 51.2311C1.5 23.7657 23.8861 1.5 51.5 1.5C79.1139 1.5 101.5 23.7657 101.5 51.2311Z" fill="#CB5300" stroke="#FDFDFC" stroke-width="3" stroke-linecap="round" stroke-linejoin="round"/>
<g id="espa&#195;&#167;o_comunitario">
<g id="symbolIcon">
<path id="Vector-705" fill-rule="evenodd" clip-rule="evenodd" d="M55.8094 17.3099C66.3584 21.9926 74.3549 28.1418 78.489 31.6965C80.8684 33.7425 82.2085 36.6809 82.3726 39.815C82.5682 43.548 82.8052 49.3902 82.8052 55.7795C82.8052 60.6924 82.6653 65.4375 82.5118 69.1638C82.3003 74.2889 78.2249 78.3312 73.0983 78.5065C68.1267 78.6766 60.7494 78.8459 51.1388 78.8459C41.5282 78.8459 34.1517 78.6766 29.1793 78.5065C24.0527 78.3312 19.9781 74.2889 19.7666 69.1638C19.6124 65.4383 19.4724 60.6924 19.4724 55.7795C19.4724 49.3902 19.7094 43.548 19.9051 39.8142C20.0699 36.6809 21.4093 33.7425 23.7894 31.6965C27.9227 28.1418 35.92 21.9926 46.469 17.3099C49.4405 15.9908 52.8372 15.9908 55.8094 17.3099ZM32.7386 72.8893H69.5391C69.7077 72.9713 69.8943 73.024 70.0922 73.0405C70.9545 73.112 71.713 72.4709 71.7852 71.6086L71.9884 69.1713C72.3045 69.1419 72.6047 69.1088 72.8884 69.0742C75.7222 68.7288 77.6831 66.1855 77.5176 63.2139C77.3054 59.3929 76.8028 55.8246 76.3302 53.1202C75.6966 49.4993 72.8297 46.8687 69.3367 46.5692C70.7506 45.0259 71.6174 42.9746 71.6174 40.7375C71.6174 35.9871 67.7083 32.078 62.9587 32.078C58.2083 32.078 54.2992 35.9871 54.2992 40.7375C54.2992 41.2311 54.3414 41.7157 54.4219 42.1875C53.4075 41.7669 52.2984 41.5336 51.1388 41.5336C49.9793 41.5336 48.8701 41.7669 47.8558 42.1875C47.9363 41.7157 47.9784 41.2311 47.9784 40.7375C47.9784 35.9871 44.0701 32.078 39.3197 32.078C34.5693 32.078 30.6602 35.9871 30.6602 40.7375C30.6602 42.9746 31.5271 45.0259 32.941 46.5692C29.448 46.8694 26.581 49.4993 25.9482 53.1202C25.4749 55.8246 24.9723 59.3929 24.7601 63.2139C24.5945 66.1855 26.5555 68.7288 29.3893 69.0742C29.673 69.1088 29.9732 69.1419 30.2892 69.1713L30.4924 71.6086C30.5647 72.4709 31.3231 73.112 32.1855 73.0405C32.3834 73.024 32.57 72.9713 32.7386 72.8893ZM38.0142 70.0675H33.5106L33.3022 67.5775C33.2374 66.798 32.6084 66.1862 31.8273 66.1426C31.062 66.1004 30.3743 66.0365 29.7685 65.962C28.5593 65.8145 27.8196 64.6557 27.8904 63.3878C28.095 59.7051 28.5811 56.2663 29.0364 53.6598C29.4262 51.4324 31.1945 49.7973 33.3616 49.6829C36.4595 49.5189 39.2332 49.4489 42.5147 49.4188C42.4914 49.6739 42.4793 49.932 42.4793 50.1931C42.4793 52.3821 43.3093 54.3927 44.6698 55.924C41.8759 56.3446 39.7087 58.4794 39.2031 61.3215C38.8163 63.4976 38.3618 66.4571 38.03 69.8598C38.0232 69.929 38.0179 69.9983 38.0142 70.0675ZM51.1388 55.717C48.1086 55.717 45.6149 53.2233 45.6149 50.1931C45.6149 47.1629 48.1086 44.6692 51.1388 44.6692C54.169 44.6692 56.6627 47.1629 56.6627 50.1931C56.6627 53.2233 54.169 55.717 51.1388 55.717ZM61.1189 70.0675H41.1603C41.4816 66.8032 41.918 63.9634 42.2897 61.8708C42.5749 60.2657 43.8571 59.0761 45.4847 58.9888C46.9227 58.912 48.7934 58.8526 51.1388 58.8526C53.485 58.8526 55.3549 58.912 56.7937 58.9888C58.4213 59.0761 59.7035 60.2657 59.9887 61.8708C60.3612 63.9634 60.7968 66.8032 61.1189 70.0675ZM44.8436 40.7375C44.8436 43.7677 42.3499 46.2614 39.3197 46.2614C36.2887 46.2614 33.7958 43.7677 33.7958 40.7375C33.7958 37.7073 36.2887 35.2136 39.3197 35.2136C42.3499 35.2136 44.8436 37.7073 44.8436 40.7375ZM57.434 40.7375C57.434 37.7073 59.9277 35.2136 62.9587 35.2136C65.9889 35.2136 68.4826 37.7073 68.4826 40.7375C68.4826 43.7677 65.9889 46.2614 62.9587 46.2614C59.9277 46.2614 57.434 43.7677 57.434 40.7375ZM68.7678 70.0675H64.2643C64.2605 69.9983 64.2552 69.929 64.2485 69.859C63.9166 66.4579 63.4621 63.4976 63.0753 61.3222C62.5704 58.4794 60.4026 56.3446 57.6086 55.924C58.9683 54.3919 59.7983 52.3821 59.7983 50.1931C59.7983 49.932 59.7863 49.6739 59.7637 49.4188C63.0445 49.4489 65.8189 49.5189 68.9161 49.6829C71.0839 49.7973 72.8523 51.4324 73.2413 53.6598C73.6973 56.2671 74.1826 59.7051 74.3873 63.3878C74.458 64.6557 73.7184 65.8145 72.5091 65.962C71.9034 66.0365 71.2156 66.1004 70.4504 66.1426C69.67 66.1862 69.0402 66.798 68.9755 67.5775L68.7678 70.0675Z" fill="#FDFDFC"/>
</g>
</g>
</g>
</svg>
