<svg width="103" height="121" viewBox="0 0 103 121" fill="none" xmlns="http://www.w3.org/2000/svg">
<g id="frente">
<path id="backgroundIcon" d="M101.5 51.2311C101.5 86.9243 64.4167 112.367 54.1222 118.744C53.3378 119.238 52.4284 119.5 51.5 119.5C50.5716 119.5 49.6622 119.238 48.8778 118.744C38.5861 112.367 1.5 86.9243 1.5 51.2311C1.5 23.7657 23.8861 1.5 51.5 1.5C79.1139 1.5 101.5 23.7657 101.5 51.2311Z" fill="#CB5300" stroke="#FDFDFC" stroke-width="3" stroke-linecap="round" stroke-linejoin="round"/>
<g id="symbolIcon">
<path id="Subtract" fill-rule="evenodd" clip-rule="evenodd" d="M34.662 25.7711C39.3306 26.4019 43.3205 27.5646 47.1522 28.6874C55.0644 31.0042 62.2708 33.1493 73.887 29.376C77.0065 28.3623 80.1959 30.0761 80.5987 33.3311C80.953 36.1897 81.298 40.6915 81.298 47.4167C81.298 56.5236 80.6657 61.5636 80.2294 63.9753V63.9774C79.9243 65.6498 78.7403 66.9814 77.1491 67.5795C62.8938 72.9517 54.7436 71.2444 45.4078 69.2648C42.4579 68.6396 39.3862 67.9873 35.9416 67.5432C35.9751 64.095 35.9965 59.9318 35.9965 54.9368C35.9965 40.3443 35.8111 32.8563 35.6907 29.535C35.6408 28.1435 35.2836 26.8575 34.662 25.7711Z" fill="#FDFDFC"/>
<path id="Rectangle-58" fill-rule="evenodd" clip-rule="evenodd" d="M25.8366 25.3832C26.3078 25.3284 26.8625 25.2934 27.5154 25.2927C28.0758 25.2906 28.6361 25.3198 29.1928 25.3811L29.2007 25.3818C31.3714 25.6313 32.6438 27.4563 32.7223 29.6412C32.842 32.9482 33.0267 40.4049 33.0267 54.9368C33.0267 69.4686 32.842 76.926 32.7223 80.2316C32.6438 82.4172 31.3714 84.2422 29.2007 84.4903C28.7287 84.5451 28.1727 84.5801 27.5183 84.5801C26.866 84.5801 26.3086 84.5451 25.8381 84.4917L25.8366 84.491C23.6659 84.2415 22.3935 82.4172 22.315 80.2316C22.1953 76.9246 22.0107 69.4686 22.0107 54.9368C22.0107 40.4049 22.1953 32.9468 22.315 29.6412C22.3935 27.4556 23.6659 25.6313 25.8366 25.3832Z" fill="#FDFDFC"/>
</g>
</g>
</svg>
