<svg width="103" height="121" viewBox="0 0 103 121" fill="none" xmlns="http://www.w3.org/2000/svg">
<g id="gastronomia">
<path id="backgroundIcon" d="M101.5 51.2311C101.5 86.9243 64.4167 112.367 54.1222 118.744C53.3378 119.238 52.4284 119.5 51.5 119.5C50.5716 119.5 49.6622 119.238 48.8778 118.744C38.5861 112.367 1.5 86.9243 1.5 51.2311C1.5 23.7657 23.8861 1.5 51.5 1.5C79.1139 1.5 101.5 23.7657 101.5 51.2311Z" fill="#CB5300" stroke="#FDFDFC" stroke-width="3" stroke-linecap="round" stroke-linejoin="round"/>
<g id="gatronomia">
<g id="symbolIcon">
<path id="Union" fill-rule="evenodd" clip-rule="evenodd" d="M42.6868 21.7176H44.9252C47.6576 21.7176 49.9994 23.6253 50.4549 26.3185C51.1229 30.2678 52.0575 37.1677 51.9819 44.5352C51.9384 48.9486 48.9914 52.9043 44.3577 53.943C43.9414 54.0357 43.5116 54.1248 43.071 54.2068L45.5518 75.7041C46.043 79.9756 43.3277 84.1131 39.0697 84.6948C38.5999 84.7633 38.1258 84.8018 37.6518 84.8096H37.6275C37.224 84.8096 36.7343 84.769 36.1947 84.6963C31.9317 84.1195 29.2114 79.9792 29.7054 75.7041L32.1848 54.2075C31.7542 54.1276 31.325 54.0399 30.898 53.9437C26.2629 52.9036 23.3174 48.9465 23.2717 44.5345C23.1983 37.1677 24.1293 30.2692 24.798 26.3199C25.2528 23.6267 27.5974 21.7176 30.3277 21.7176H32.569L31.864 38.8807C31.8312 39.6898 32.4614 40.3742 33.2705 40.4077C34.0803 40.4405 34.7646 39.8103 34.7974 39.0012L35.5075 21.7176H39.7483L40.4576 39.0012C40.4911 39.8103 41.1755 40.4405 41.9846 40.4077C42.7944 40.3742 43.4246 39.6898 43.3911 38.8807L42.6868 21.7176ZM64.5833 22.206C70.277 26.4347 78.3346 38.0524 79.1352 56.0588C79.2421 58.4583 78.0345 60.7088 75.8545 61.7211C74.627 62.29 72.9674 62.9387 70.8773 63.4905L70.863 63.494C70.8587 63.4947 70.8552 63.499 70.8559 63.504L72.6096 75.7754C73.2077 79.9671 71.4554 83.6597 67.3707 84.7839C63.3351 85.896 59.0764 83.1229 59.0764 78.9341V25.3426C59.0764 23.5433 60.1471 22.1618 61.4595 21.6898C62.4141 21.3462 63.5326 21.4261 64.5833 22.206Z" fill="#FDFDFC"/>
</g>
</g>
</g>
</svg>
