<svg width="108" height="126" viewBox="0 0 108 126" fill="none" xmlns="http://www.w3.org/2000/svg">
<g id="grupo_teatral">
<path id="backgroundIcon" d="M104 53.7311C104 89.4243 66.9167 114.867 56.6222 121.244C55.8378 121.738 54.9284 122 54 122C53.0716 122 52.1622 121.738 51.3778 121.244C41.0861 114.867 4 89.4243 4 53.7311C4 26.2657 26.3861 4 54 4C81.6139 4 104 26.2657 104 53.7311Z" fill="#CB5300" stroke="#FDFDFC" stroke-width="3" stroke-linecap="round" stroke-linejoin="round"/>
<g id="grupo_teatral_2">
<g id="symbolIcon">
<path id="Rectangle-112_2" fill-rule="evenodd" clip-rule="evenodd" d="M40.7305 41.2008C41.6049 38.9957 43.523 37.5344 45.8935 37.639C48.7336 37.7645 54.116 38.4583 63.7901 41.05C73.4636 43.6423 78.4721 45.7334 80.9941 47.0445C83.0997 48.1388 84.0306 50.3636 83.6846 52.7107C83.2841 55.4272 82.5079 59.8692 81.1385 64.9803C78.4835 74.8895 70.756 82.747 60.7301 84.9211C57.302 85.6643 54.0545 85.9622 51.9102 85.3874C49.7652 84.8127 47.1019 82.9307 44.5046 80.5735C36.9088 73.678 34.1461 63.009 36.8011 53.0997C38.1705 47.9893 39.7191 43.7538 40.7305 41.2008ZM57.5301 53.4001C57.5301 53.4001 55.965 49.4974 51.1618 49.4974C46.358 49.4974 44.7929 53.4001 44.7929 53.4001C44.5128 54.0724 44.8315 54.8461 45.5038 55.1262C46.1768 55.4069 46.9499 55.0882 47.2306 54.4152C47.2306 54.4152 48.2394 52.1378 51.1618 52.1378C54.0836 52.1378 55.0931 54.4159 55.0931 54.4159C55.3738 55.0882 56.1469 55.4069 56.8198 55.1262C57.4921 54.8461 57.8109 54.0724 57.5301 53.4001ZM64.6386 56.974C64.6386 56.974 66.6517 55.5058 69.1826 56.967C71.7128 58.4282 71.4486 60.9052 71.4486 60.9052C71.3548 61.6282 71.8655 62.2904 72.5879 62.3842C73.3103 62.478 73.9731 61.9672 74.0669 61.2442C74.0669 61.2442 74.6625 57.0823 70.5025 54.6807C66.3425 52.2785 63.036 54.8759 63.036 54.8759C62.4569 55.3182 62.346 56.147 62.7883 56.7262C63.2306 57.3054 64.0594 57.4163 64.6386 56.974ZM64.906 68.7658C63.3998 70.6681 61.0717 72.3492 58.8051 73.2179C57.4465 73.7388 56.1177 73.984 55.0424 73.6957C53.967 73.4074 52.9392 72.531 52.0223 71.4006C50.4939 69.5148 49.3185 66.8952 48.9655 64.4943C48.8591 63.7738 48.188 63.2745 47.4676 63.3803C46.7465 63.4861 46.2471 64.1578 46.3529 64.8783C46.7712 67.7228 48.1608 70.829 49.9712 73.0633C51.2809 74.6785 52.8227 75.8343 54.3593 76.2462C55.8959 76.6581 57.8083 76.4281 59.7505 75.6835C62.4353 74.6538 65.1918 72.659 66.9762 70.4045C67.4286 69.8335 67.3316 69.0022 66.7607 68.5504C66.1891 68.0979 65.3584 68.1942 64.906 68.7658Z" fill="#FDFDFC"/>
<path id="Rectangle-112_21" fill-rule="evenodd" clip-rule="evenodd" d="M33.5156 65.1254C33.532 65.23 33.4966 65.3358 33.4212 65.4099C33.3457 65.4841 33.2387 65.517 33.1347 65.4986C32.8933 65.4378 32.662 65.3212 32.4745 65.1406C27.1327 59.9927 24.093 52.7037 24.0841 45.0402C24.0778 39.7491 24.4726 35.257 24.7856 32.5291C25.0562 30.1719 26.5294 28.2627 28.8455 27.7475C31.6203 27.1303 36.9982 26.401 47.0132 26.3889C57.0283 26.3775 62.4081 27.0942 65.1842 27.705C67.5015 28.2145 68.9785 30.1206 69.2548 32.4772C69.4582 34.2102 69.6958 36.6555 69.8435 39.566C69.8435 39.5666 69.8435 39.5666 69.8435 39.5672C69.8486 39.6737 69.8017 39.7763 69.718 39.8416C69.6337 39.9075 69.5235 39.9284 69.4215 39.898C67.9203 39.4494 66.2753 38.983 64.4732 38.5001C54.4955 35.8261 48.9389 35.1309 46.0101 35.0017C42.4825 34.8458 39.5766 36.9458 38.2763 40.2288C37.2402 42.8433 35.6535 47.182 34.2506 52.4167C33.1233 56.6254 32.892 60.9572 33.5156 65.1254Z" fill="#FDFDFC"/>
</g>
</g>
</g>
</svg>
