<svg width="103" height="121" viewBox="0 0 103 121" fill="none" xmlns="http://www.w3.org/2000/svg">
<g id="grupo">
<path id="backgroundIcon" d="M101.5 51.2311C101.5 86.9243 64.4167 112.367 54.1222 118.744C53.3378 119.238 52.4284 119.5 51.5 119.5C50.5716 119.5 49.6622 119.238 48.8778 118.744C38.5861 112.367 1.5 86.9243 1.5 51.2311C1.5 23.7657 23.8861 1.5 51.5 1.5C79.1139 1.5 101.5 23.7657 101.5 51.2311Z" fill="#CB5300" stroke="#FDFDFC" stroke-width="3" stroke-linecap="round" stroke-linejoin="round"/>
<g id="grupo_2">
<g id="symbolIcon">
<path id="Ellipse-135" fill-rule="evenodd" clip-rule="evenodd" d="M45.1269 42.9384C44.38 41.8413 43.9452 40.538 43.9452 39.1467C43.9452 38.1331 44.1756 37.1669 44.5899 36.2926C45.7503 33.8402 48.3539 32.1141 51.3471 32.1141C54.342 32.1141 56.9455 33.841 58.1059 36.2948C58.5194 37.1684 58.7499 38.1339 58.7499 39.1467C58.7499 40.7653 58.1614 42.2642 57.1776 43.4584C55.8184 45.1093 53.7036 46.1786 51.3471 46.1786C48.7515 46.1786 46.4497 44.8813 45.1269 42.9384ZM57.382 27.6805C57.382 22.9625 61.4683 19.0804 66.4347 19.0804C71.4002 19.0804 75.4873 22.9625 75.4873 27.6805C75.4873 32.3978 71.4002 36.2798 66.4347 36.2798C61.4683 36.2798 57.382 32.3978 57.382 27.6805ZM45.3123 27.6805C45.3123 32.3978 41.2259 36.2798 36.2604 36.2798C31.2941 36.2798 27.2077 32.3978 27.2077 27.6805C27.2077 22.9625 31.2941 19.0804 36.2604 19.0804C41.2259 19.0804 45.3123 22.9625 45.3123 27.6805ZM71.6838 36.5251C72.5463 36.5559 73.3709 36.5905 74.1455 36.6289C77.8319 36.814 80.8695 39.4236 81.5317 43.0235C82.1242 46.244 82.7554 50.4918 83.0216 55.042C83.1721 57.6117 81.4477 59.8571 78.8679 60.1558C78.056 60.2499 77.1349 60.3319 76.1091 60.3861L74.8893 74.2753C74.6691 76.7833 72.8576 78.8661 70.3285 79.0979C69.1808 79.2025 67.8351 79.2785 66.3364 79.2785C64.7919 79.2785 63.4089 79.198 62.239 79.0881C61.6323 79.0309 60.6382 78.8669 59.6228 78.6155C60.3507 77.7449 60.8101 76.6561 60.902 75.4724L61.3931 69.1554C61.7012 69.1404 61.9958 69.1253 62.277 69.1095C65.6133 68.9259 68.0568 66.1869 67.7321 63.0273C67.3099 58.9127 66.7317 55.3324 66.239 52.7003C65.58 49.1787 62.6105 46.5902 58.8655 46.3547C60.8275 44.5073 62.0497 41.9519 62.0497 39.1467C62.0497 38.3453 61.9499 37.565 61.7622 36.8155C63.1776 37.4762 64.7642 37.8479 66.4347 37.8479C68.3364 37.8479 70.1289 37.3656 71.6838 36.5251ZM40.9329 36.8155C40.7444 37.565 40.6446 38.3453 40.6446 39.1467C40.6446 41.9519 41.8675 44.5081 43.8295 46.3547C40.0846 46.5902 37.1158 49.1787 36.4568 52.7003C35.965 55.3317 35.3859 58.912 34.9638 63.0273C34.639 66.1869 37.0826 68.9259 40.4188 69.1095C40.7 69.1253 40.9939 69.1404 41.302 69.1554L41.7931 75.4724C41.8842 76.6418 42.3341 77.7193 43.0469 78.5839C42.0687 78.8533 41.0873 79.0286 40.4553 79.0881C39.2861 79.198 37.9032 79.2785 36.3586 79.2785C34.86 79.2785 33.5143 79.2025 32.3665 79.0979C29.8374 78.8661 28.0259 76.7833 27.8057 74.2753L26.5859 60.3861C25.5602 60.3319 24.639 60.2499 23.8271 60.1558C21.2465 59.8571 19.523 57.6117 19.6735 55.042C19.9396 50.4918 20.5709 46.244 21.1634 43.0235C21.8255 39.4236 24.8632 36.814 28.5495 36.6289C29.3313 36.5898 30.1551 36.5552 31.0089 36.5243C32.5646 37.3656 34.3578 37.8479 36.2604 37.8479C37.9309 37.8479 39.5174 37.4762 40.9329 36.8155ZM46.1004 77.0715C45.5166 76.6568 45.142 75.9834 45.085 75.2414L44.4861 67.5391C44.4244 66.7452 43.7463 66.1214 42.9091 66.0883C42.0592 66.0545 41.2933 66.0168 40.6097 65.9792C39.161 65.8995 38.1075 64.7038 38.2485 63.332C38.6604 59.3138 39.2259 55.8185 39.7067 53.2488C40.0996 51.1487 41.8683 49.5941 44.1107 49.4797C44.4877 49.4609 44.8885 49.4421 45.3123 49.4255C46.9582 49.3593 48.9606 49.3141 51.3471 49.3141C53.5562 49.3141 55.4358 49.3533 57.0081 49.4112C57.5729 49.4315 58.098 49.4549 58.5852 49.4797C60.8275 49.5941 62.5962 51.1487 62.9891 53.2488C63.4707 55.8185 64.0347 59.3145 64.4473 63.332C64.5883 64.7038 63.5349 65.8995 62.0861 65.9792C61.4026 66.0168 60.6358 66.0545 59.7859 66.0883C58.9487 66.1214 58.2715 66.7452 58.2097 67.5391L57.6109 75.2414C57.5452 76.0827 57.0731 76.8352 56.3499 77.2235C56.0917 77.3627 55.801 77.4545 55.485 77.4876C54.3008 77.611 52.8727 77.7111 51.3479 77.7111C49.8224 77.7111 48.3943 77.611 47.2109 77.4876C46.7911 77.4439 46.4149 77.2949 46.1004 77.0715Z" fill="#FDFDFC"/>
</g>
</g>
</g>
</svg>
