<svg width="84" height="84" viewBox="0 0 84 84" fill="none" xmlns="http://www.w3.org/2000/svg">
<g filter="url(#filter0_dd_272_1204)">
<rect x="8" y="6" width="68" height="68" rx="34" fill="#CB5300"/>
<rect x="10.5" y="8.5" width="63" height="63" rx="31.5" stroke="white" stroke-width="5"/>
<path fill-rule="evenodd" clip-rule="evenodd" d="M39.7693 37.5826C39.5079 37.1784 39.3557 36.6983 39.3557 36.1857C39.3557 35.8123 39.4364 35.4563 39.5814 35.1342C39.9875 34.2307 40.8988 33.5947 41.9464 33.5947C42.9946 33.5947 43.9058 34.2309 44.312 35.135C44.4567 35.4568 44.5374 35.8125 44.5374 36.1857C44.5374 36.782 44.3314 37.3342 43.9871 37.7742C43.5114 38.3824 42.7712 38.7764 41.9464 38.7764C41.0379 38.7764 40.2323 38.2984 39.7693 37.5826ZM44.0586 31.9613C44.0586 30.2231 45.4888 28.7928 47.227 28.7928C48.965 28.7928 50.3955 30.2231 50.3955 31.9613C50.3955 33.6992 48.965 35.1294 47.227 35.1294C45.4888 35.1294 44.0586 33.6992 44.0586 31.9613ZM39.8342 31.9613C39.8342 33.6992 38.404 35.1294 36.666 35.1294C34.9278 35.1294 33.4976 33.6992 33.4976 31.9613C33.4976 30.2231 34.9278 28.7928 36.666 28.7928C38.404 28.7928 39.8342 30.2231 39.8342 31.9613ZM49.0642 35.2198C49.3661 35.2312 49.6547 35.2439 49.9258 35.2581C51.2161 35.3263 52.2792 36.2877 52.511 37.614C52.7184 38.8005 52.9393 40.3654 53.0325 42.0418C53.0851 42.9886 52.4816 43.8158 51.5787 43.9259C51.2945 43.9605 50.9721 43.9907 50.6131 44.0107L50.1862 49.1278C50.1091 50.0518 49.4751 50.8191 48.5899 50.9045C48.1882 50.9431 47.7172 50.9711 47.1927 50.9711C46.6521 50.9711 46.168 50.9414 45.7586 50.9009C45.5462 50.8799 45.1983 50.8194 44.8429 50.7268C45.0976 50.4061 45.2584 50.0049 45.2906 49.5688L45.4625 47.2415C45.5703 47.236 45.6735 47.2304 45.7719 47.2246C46.9395 47.157 47.7948 46.1479 47.6811 44.9838C47.5334 43.4679 47.331 42.1488 47.1586 41.1791C46.9279 39.8817 45.8886 38.928 44.5778 38.8412C45.2645 38.1606 45.6923 37.2192 45.6923 36.1857C45.6923 35.8904 45.6574 35.6029 45.5917 35.3268C46.0871 35.5702 46.6424 35.7072 47.227 35.7072C47.8927 35.7072 48.52 35.5295 49.0642 35.2198ZM38.3014 35.3268C38.2354 35.6029 38.2005 35.8904 38.2005 36.1857C38.2005 37.2192 38.6285 38.1609 39.3152 38.8412C38.0045 38.928 36.9654 39.8817 36.7348 41.1791C36.5626 42.1486 36.36 43.4676 36.2122 44.9838C36.0986 46.1479 36.9538 47.157 38.1215 47.2246C38.2199 47.2304 38.3228 47.236 38.4306 47.2415L38.6025 49.5688C38.6344 49.9997 38.7918 50.3967 39.0413 50.7152C38.699 50.8144 38.3555 50.879 38.1342 50.9009C37.7251 50.9414 37.241 50.9711 36.7004 50.9711C36.1759 50.9711 35.7049 50.9431 35.3032 50.9045C34.418 50.8191 33.784 50.0518 33.7069 49.1278L33.28 44.0107C32.921 43.9907 32.5986 43.9605 32.3144 43.9259C31.4112 43.8158 30.8079 42.9886 30.8606 42.0418C30.9538 40.3654 31.1747 38.8005 31.3821 37.614C31.6138 36.2877 32.677 35.3263 33.9672 35.2581C34.2409 35.2437 34.5292 35.2309 34.828 35.2195C35.3725 35.5295 36.0001 35.7072 36.666 35.7072C37.2507 35.7072 37.806 35.5702 38.3014 35.3268ZM40.11 50.158C39.9057 50.0052 39.7746 49.7571 39.7546 49.4837L39.5451 46.646C39.5234 46.3536 39.2861 46.1237 38.9931 46.1115C38.6956 46.0991 38.4275 46.0852 38.1883 46.0713C37.6813 46.042 37.3125 45.6014 37.3619 45.0961C37.506 43.6157 37.704 42.3279 37.8723 41.3812C38.0098 40.6075 38.6288 40.0347 39.4136 39.9926C39.5456 39.9856 39.6859 39.9787 39.8342 39.9726C40.4103 39.9482 41.1111 39.9316 41.9464 39.9316C42.7196 39.9316 43.3774 39.946 43.9277 39.9673C44.1254 39.9748 44.3092 39.9834 44.4797 39.9926C45.2645 40.0347 45.8836 40.6075 46.0211 41.3812C46.1896 42.3279 46.387 43.6159 46.5315 45.0961C46.5808 45.6014 46.2121 46.042 45.7051 46.0713C45.4658 46.0852 45.1974 46.0991 44.9 46.1115C44.607 46.1237 44.3699 46.3536 44.3483 46.646L44.1387 49.4837C44.1157 49.7937 43.9505 50.0709 43.6974 50.214C43.607 50.2652 43.5053 50.2991 43.3946 50.3113C42.9802 50.3567 42.4803 50.3936 41.9467 50.3936C41.4127 50.3936 40.9129 50.3567 40.4987 50.3113C40.3518 50.2952 40.2201 50.2403 40.11 50.158Z" fill="#FAEEE6"/>
</g>
<defs>
<filter id="filter0_dd_272_1204" x="0" y="0" width="84" height="84" filterUnits="userSpaceOnUse" color-interpolation-filters="sRGB">
<feFlood flood-opacity="0" result="BackgroundImageFix"/>
<feColorMatrix in="SourceAlpha" type="matrix" values="0 0 0 0 0 0 0 0 0 0 0 0 0 0 0 0 0 0 127 0" result="hardAlpha"/>
<feMorphology radius="2" operator="dilate" in="SourceAlpha" result="effect1_dropShadow_272_1204"/>
<feOffset dy="2"/>
<feGaussianBlur stdDeviation="3"/>
<feColorMatrix type="matrix" values="0 0 0 0 0 0 0 0 0 0 0 0 0 0 0 0 0 0 0.15 0"/>
<feBlend mode="normal" in2="BackgroundImageFix" result="effect1_dropShadow_272_1204"/>
<feColorMatrix in="SourceAlpha" type="matrix" values="0 0 0 0 0 0 0 0 0 0 0 0 0 0 0 0 0 0 127 0" result="hardAlpha"/>
<feOffset dy="1"/>
<feGaussianBlur stdDeviation="1"/>
<feColorMatrix type="matrix" values="0 0 0 0 0 0 0 0 0 0 0 0 0 0 0 0 0 0 0.3 0"/>
<feBlend mode="normal" in2="effect1_dropShadow_272_1204" result="effect2_dropShadow_272_1204"/>
<feBlend mode="normal" in="SourceGraphic" in2="effect2_dropShadow_272_1204" result="shape"/>
</filter>
</defs>
</svg>
