<svg width="84" height="84" viewBox="0 0 84 84" fill="none" xmlns="http://www.w3.org/2000/svg">
<g filter="url(#filter0_dd_272_1127)">
<rect x="8" y="6" width="68" height="68" rx="34" fill="#CB5300"/>
<rect x="10.5" y="8.5" width="63" height="63" rx="31.5" stroke="white" stroke-width="5"/>
<path fill-rule="evenodd" clip-rule="evenodd" d="M36.1948 33.5253C36.5774 32.5606 37.4165 31.9213 38.4536 31.967C39.6962 32.0219 42.0509 32.3255 46.2834 33.4593C50.5155 34.5935 52.7067 35.5083 53.8101 36.0819C54.7313 36.5607 55.1386 37.534 54.9872 38.5609C54.812 39.7494 54.4724 41.6927 53.8733 43.9288C52.7117 48.2641 49.3309 51.7018 44.9446 52.6529C43.4448 52.9781 42.0241 53.1084 41.0859 52.857C40.1475 52.6055 38.9823 51.7822 37.846 50.7509C34.5228 47.7341 33.3141 43.0664 34.4757 38.7311C35.0748 36.4953 35.7523 34.6423 36.1948 33.5253ZM43.5446 38.8625C43.5446 38.8625 42.8599 37.1551 40.7585 37.1551C38.6568 37.1551 37.9721 38.8625 37.9721 38.8625C37.8496 39.1566 37.989 39.4951 38.2831 39.6177C38.5776 39.7405 38.9158 39.601 39.0386 39.3066C39.0386 39.3066 39.4799 38.3103 40.7585 38.3103C42.0368 38.3103 42.4784 39.3069 42.4784 39.3069C42.6012 39.601 42.9395 39.7405 43.2339 39.6177C43.528 39.4951 43.6675 39.1566 43.5446 38.8625ZM46.6546 40.4261C46.6546 40.4261 47.5353 39.7837 48.6426 40.423C49.7496 41.0623 49.634 42.146 49.634 42.146C49.5929 42.4623 49.8164 42.752 50.1324 42.793C50.4484 42.8341 50.7384 42.6106 50.7795 42.2943C50.7795 42.2943 51.0401 40.4735 49.2201 39.4228C47.4001 38.3718 45.9535 39.5082 45.9535 39.5082C45.7001 39.7017 45.6516 40.0643 45.8451 40.3177C46.0386 40.5711 46.4012 40.6196 46.6546 40.4261ZM46.7716 45.585C46.1126 46.4172 45.0941 47.1527 44.1024 47.5328C43.5081 47.7607 42.9267 47.868 42.4562 47.7418C41.9858 47.6157 41.5361 47.2323 41.135 46.7377C40.4663 45.9127 39.9521 44.7666 39.7976 43.7162C39.7511 43.401 39.4575 43.1826 39.1423 43.2288C38.8268 43.2751 38.6083 43.569 38.6546 43.8842C38.8376 45.1287 39.4456 46.4877 40.2376 47.4652C40.8106 48.1718 41.4851 48.6775 42.1574 48.8577C42.8297 49.0379 43.6663 48.9372 44.5161 48.6115C45.6907 48.161 46.8966 47.2883 47.6773 46.3019C47.8752 46.0521 47.8328 45.6884 47.583 45.4907C47.333 45.2928 46.9695 45.3349 46.7716 45.585Z" fill="#FAEEE6"/>
<path fill-rule="evenodd" clip-rule="evenodd" d="M33.0382 43.9923C33.0454 44.0381 33.0298 44.0843 32.9968 44.1168C32.9639 44.1492 32.917 44.1636 32.8715 44.1556C32.7659 44.129 32.6647 44.078 32.5827 43.999C30.2456 41.7468 28.9158 38.5578 28.9119 35.205C28.9091 32.8902 29.0818 30.9249 29.2188 29.7314C29.3372 28.7002 29.9817 27.8649 30.995 27.6395C32.209 27.3695 34.5618 27.0504 38.9434 27.0451C43.325 27.0401 45.6786 27.3537 46.8932 27.6209C47.907 27.8438 48.5532 28.6777 48.6741 29.7087C48.7631 30.4669 48.867 31.5367 48.9316 32.8101C48.9316 32.8103 48.9316 32.8103 48.9316 32.8106C48.9338 32.8572 48.9133 32.9021 48.8767 32.9306C48.8399 32.9595 48.7916 32.9686 48.747 32.9553C48.0902 32.759 47.3706 32.555 46.5821 32.3438C42.2169 31.1739 39.7859 30.8697 38.5045 30.8132C36.9612 30.745 35.6898 31.6637 35.121 33.1C34.6677 34.2439 33.9735 36.1421 33.3597 38.4322C32.8666 40.2736 32.7654 42.1687 33.0382 43.9923Z" fill="#FAEEE6"/>
</g>
<defs>
<filter id="filter0_dd_272_1127" x="0" y="0" width="84" height="84" filterUnits="userSpaceOnUse" color-interpolation-filters="sRGB">
<feFlood flood-opacity="0" result="BackgroundImageFix"/>
<feColorMatrix in="SourceAlpha" type="matrix" values="0 0 0 0 0 0 0 0 0 0 0 0 0 0 0 0 0 0 127 0" result="hardAlpha"/>
<feMorphology radius="2" operator="dilate" in="SourceAlpha" result="effect1_dropShadow_272_1127"/>
<feOffset dy="2"/>
<feGaussianBlur stdDeviation="3"/>
<feColorMatrix type="matrix" values="0 0 0 0 0 0 0 0 0 0 0 0 0 0 0 0 0 0 0.15 0"/>
<feBlend mode="normal" in2="BackgroundImageFix" result="effect1_dropShadow_272_1127"/>
<feColorMatrix in="SourceAlpha" type="matrix" values="0 0 0 0 0 0 0 0 0 0 0 0 0 0 0 0 0 0 127 0" result="hardAlpha"/>
<feOffset dy="1"/>
<feGaussianBlur stdDeviation="1"/>
<feColorMatrix type="matrix" values="0 0 0 0 0 0 0 0 0 0 0 0 0 0 0 0 0 0 0.3 0"/>
<feBlend mode="normal" in2="effect1_dropShadow_272_1127" result="effect2_dropShadow_272_1127"/>
<feBlend mode="normal" in="SourceGraphic" in2="effect2_dropShadow_272_1127" result="shape"/>
</filter>
</defs>
</svg>
