<svg width="84" height="84" viewBox="0 0 84 84" fill="none" xmlns="http://www.w3.org/2000/svg">
<g filter="url(#filter0_dd_272_1155)">
<rect x="8" y="6" width="68" height="68" rx="34" fill="#CB5300"/>
<rect x="10.5" y="8.5" width="63" height="63" rx="31.5" stroke="white" stroke-width="5"/>
<path fill-rule="evenodd" clip-rule="evenodd" d="M37.9791 46.4905C36.4081 45.2582 35.3987 43.342 35.3987 41.1901C35.3987 37.472 38.413 34.4574 42.1312 34.4574C45.8496 34.4574 48.8639 37.472 48.8639 41.1901C48.8639 43.342 47.8545 45.2582 46.2835 46.4905C46.1559 47.0053 46.0121 47.499 45.8987 47.8686C45.7773 48.2639 45.4487 48.5511 45.0376 48.5941C44.4857 48.6517 43.5553 48.7149 42.1312 48.7149C40.7073 48.7149 39.7769 48.6517 39.225 48.5941C38.8139 48.5511 38.4853 48.2639 38.3639 47.8686C38.2505 47.499 38.1066 47.0053 37.9791 46.4905ZM46.6857 40.7943C46.6857 38.2787 44.6467 36.2397 42.1312 36.2397C41.8035 36.2397 41.5373 36.5058 41.5373 36.8338C41.5373 37.1618 41.8035 37.4279 42.1312 37.4279C43.9905 37.4279 45.4975 38.9349 45.4975 40.7943C45.4975 41.122 45.764 41.3884 46.0916 41.3884C46.4196 41.3884 46.6857 41.122 46.6857 40.7943Z" fill="#FAEEE6"/>
<path d="M39.2554 49.1942C39.8281 49.2505 40.7532 49.309 42.1311 49.309C43.5663 49.309 44.5105 49.2455 45.0766 49.1873L45.0156 49.75C44.9477 50.3791 44.508 50.9011 43.8806 50.9834C43.4335 51.0422 42.846 51.091 42.1311 51.091C41.3795 51.091 40.804 51.0369 40.3895 50.9743C39.8617 50.8944 39.4885 50.473 39.3901 49.9482C39.3488 49.7279 39.3025 49.4731 39.2554 49.1942Z" fill="#FAEEE6"/>
<path fill-rule="evenodd" clip-rule="evenodd" d="M41.5535 29.19C41.5535 28.8715 41.8124 28.6125 42.1309 28.6125C42.4497 28.6125 42.7087 28.8715 42.7087 29.19V31.4078C42.7087 31.7266 42.4497 31.9856 42.1309 31.9856C41.8124 31.9856 41.5535 31.7266 41.5535 31.4078V29.19Z" fill="#FAEEE6"/>
<path fill-rule="evenodd" clip-rule="evenodd" d="M49.4378 31.8789C49.6631 31.6535 50.0291 31.6535 50.2545 31.8789C50.4799 32.1043 50.4799 32.4702 50.2545 32.6956L48.6862 34.2639C48.4608 34.4893 48.0949 34.4893 47.8695 34.2639C47.6441 34.0385 47.6441 33.6725 47.8695 33.4472L49.4378 31.8789Z" fill="#FAEEE6"/>
<path fill-rule="evenodd" clip-rule="evenodd" d="M34.2059 32.6956C33.9805 32.4702 33.9805 32.1043 34.2059 31.8789C34.4313 31.6535 34.7972 31.6535 35.0226 31.8789L36.5909 33.4472C36.8163 33.6725 36.8163 34.0385 36.5909 34.2639C36.3655 34.4893 35.9996 34.4893 35.7742 34.2639L34.2059 32.6956Z" fill="#FAEEE6"/>
<path fill-rule="evenodd" clip-rule="evenodd" d="M31.3192 40.5796C31.0006 40.5796 30.7417 40.3207 30.7417 40.0019C30.7417 39.6834 31.0006 39.4244 31.3192 39.4244H33.537C33.8558 39.4244 34.1147 39.6834 34.1147 40.0019C34.1147 40.3207 33.8558 40.5796 33.537 40.5796H31.3192Z" fill="#FAEEE6"/>
<path fill-rule="evenodd" clip-rule="evenodd" d="M50.4478 40.5796C50.1293 40.5796 49.8704 40.3207 49.8704 40.0019C49.8704 39.6834 50.1293 39.4244 50.4478 39.4244H52.6656C52.9845 39.4244 53.2434 39.6834 53.2434 40.0019C53.2434 40.3207 52.9845 40.5796 52.6656 40.5796H50.4478Z" fill="#FAEEE6"/>
</g>
<defs>
<filter id="filter0_dd_272_1155" x="0" y="0" width="84" height="84" filterUnits="userSpaceOnUse" color-interpolation-filters="sRGB">
<feFlood flood-opacity="0" result="BackgroundImageFix"/>
<feColorMatrix in="SourceAlpha" type="matrix" values="0 0 0 0 0 0 0 0 0 0 0 0 0 0 0 0 0 0 127 0" result="hardAlpha"/>
<feMorphology radius="2" operator="dilate" in="SourceAlpha" result="effect1_dropShadow_272_1155"/>
<feOffset dy="2"/>
<feGaussianBlur stdDeviation="3"/>
<feColorMatrix type="matrix" values="0 0 0 0 0 0 0 0 0 0 0 0 0 0 0 0 0 0 0.15 0"/>
<feBlend mode="normal" in2="BackgroundImageFix" result="effect1_dropShadow_272_1155"/>
<feColorMatrix in="SourceAlpha" type="matrix" values="0 0 0 0 0 0 0 0 0 0 0 0 0 0 0 0 0 0 127 0" result="hardAlpha"/>
<feOffset dy="1"/>
<feGaussianBlur stdDeviation="1"/>
<feColorMatrix type="matrix" values="0 0 0 0 0 0 0 0 0 0 0 0 0 0 0 0 0 0 0.3 0"/>
<feBlend mode="normal" in2="effect1_dropShadow_272_1155" result="effect2_dropShadow_272_1155"/>
<feBlend mode="normal" in="SourceGraphic" in2="effect2_dropShadow_272_1155" result="shape"/>
</filter>
</defs>
</svg>
