<svg width="103" height="121" viewBox="0 0 103 121" fill="none" xmlns="http://www.w3.org/2000/svg">
<g id="iniciativa">
<path id="backgroundIcon" d="M101.5 51.2311C101.5 86.9243 64.4167 112.367 54.1222 118.744C53.3378 119.238 52.4284 119.5 51.5 119.5C50.5716 119.5 49.6622 119.238 48.8778 118.744C38.5861 112.367 1.5 86.9243 1.5 51.2311C1.5 23.7657 23.8861 1.5 51.5 1.5C79.1139 1.5 101.5 23.7657 101.5 51.2311Z" fill="#CB5300" stroke="#FDFDFC" stroke-width="3" stroke-linecap="round" stroke-linejoin="round"/>
<g id="iniciativa_2">
<g id="lightbulb--lighting-light-incandescent-bulb-lights">
<g id="symbolIcon">
<path id="Union" fill-rule="evenodd" clip-rule="evenodd" d="M39.4373 70.9713C34.7241 67.2745 31.696 61.5259 31.696 55.0704C31.696 43.9159 40.7389 34.8721 51.8934 34.8721C63.0488 34.8721 72.0917 43.9159 72.0917 55.0704C72.0917 61.5259 69.0635 67.2745 64.3503 70.9713C63.9678 72.5158 63.5361 73.997 63.196 75.1056C62.8317 76.2916 61.8461 77.1532 60.6128 77.2822C58.9569 77.4551 56.1657 77.6448 51.8934 77.6448C47.6219 77.6448 44.8307 77.4551 43.1749 77.2822C41.9415 77.1532 40.9559 76.2916 40.5916 75.1056C40.2515 73.997 39.8198 72.5158 39.4373 70.9713ZM65.5571 53.8827C65.5571 46.3361 59.4401 40.219 51.8934 40.219C50.9103 40.219 50.1119 41.0174 50.1119 42.0013C50.1119 42.9852 50.9103 43.7836 51.8934 43.7836C57.4715 43.7836 61.9925 48.3046 61.9925 53.8827C61.9925 54.8658 62.7918 55.665 63.7748 55.665C64.7587 55.665 65.5571 54.8658 65.5571 53.8827Z" fill="#FDFDFC"/>
<path id="Subtract" d="M43.2663 79.0827C44.9846 79.2516 47.7599 79.4271 51.8934 79.4271C56.199 79.4271 59.0317 79.2366 60.73 79.062L60.5471 80.7503C60.3433 82.6374 59.0242 84.2034 57.1421 84.4504C55.8006 84.6267 54.0383 84.7731 51.8934 84.7731C49.6387 84.7731 47.9121 84.6109 46.6688 84.423C45.0852 84.1835 43.9658 82.9193 43.6705 81.3449C43.5466 80.6837 43.4077 79.9194 43.2663 79.0827Z" fill="#FDFDFC"/>
<path id="Vector" fill-rule="evenodd" clip-rule="evenodd" d="M50.161 19.0702C50.161 18.1146 50.9378 17.3378 51.8934 17.3378C52.8498 17.3378 53.6266 18.1146 53.6266 19.0702V25.7236C53.6266 26.6801 52.8498 27.4569 51.8934 27.4569C50.9378 27.4569 50.161 26.6801 50.161 25.7236V19.0702Z" fill="#FDFDFC"/>
<path id="Vector_2" fill-rule="evenodd" clip-rule="evenodd" d="M73.8132 27.1366C74.4894 26.4605 75.5872 26.4605 76.2634 27.1366C76.9395 27.8128 76.9395 28.9106 76.2634 29.5868L71.5585 34.2916C70.8824 34.9678 69.7846 34.9678 69.1084 34.2916C68.4322 33.6154 68.4322 32.5176 69.1084 31.8415L73.8132 27.1366Z" fill="#FDFDFC"/>
<path id="Vector_3" fill-rule="evenodd" clip-rule="evenodd" d="M28.1181 29.5868C27.4419 28.9106 27.4419 27.8128 28.1181 27.1366C28.7942 26.4605 29.892 26.4605 30.5682 27.1366L35.273 31.8415C35.9492 32.5176 35.9492 33.6154 35.273 34.2916C34.5969 34.9678 33.499 34.9678 32.8229 34.2916L28.1181 29.5868Z" fill="#FDFDFC"/>
<path id="Vector_4" fill-rule="evenodd" clip-rule="evenodd" d="M19.4577 53.2391C18.5021 53.2391 17.7253 52.4623 17.7253 51.5058C17.7253 50.5502 18.5021 49.7734 19.4577 49.7734H26.1112C27.0676 49.7734 27.8444 50.5502 27.8444 51.5058C27.8444 52.4623 27.0676 53.2391 26.1112 53.2391H19.4577Z" fill="#FDFDFC"/>
<path id="Vector_5" fill-rule="evenodd" clip-rule="evenodd" d="M76.8439 53.2391C75.8883 53.2391 75.1115 52.4623 75.1115 51.5058C75.1115 50.5502 75.8883 49.7734 76.8439 49.7734H83.4974C84.4538 49.7734 85.2306 50.5502 85.2306 51.5058C85.2306 52.4623 84.4538 53.2391 83.4974 53.2391H76.8439Z" fill="#FDFDFC"/>
</g>
</g>
</g>
</g>
</svg>
