<svg width="103" height="121" viewBox="0 0 103 121" fill="none" xmlns="http://www.w3.org/2000/svg">
<g id="instituto">
<path id="backgroundIcon" d="M101.5 51.2311C101.5 86.9243 64.4167 112.367 54.1222 118.744C53.3378 119.238 52.4284 119.5 51.5 119.5C50.5716 119.5 49.6622 119.238 48.8778 118.744C38.5861 112.367 1.5 86.9243 1.5 51.2311C1.5 23.7657 23.8861 1.5 51.5 1.5C79.1139 1.5 101.5 23.7657 101.5 51.2311Z" fill="#CB5300" stroke="#FDFDFC" stroke-width="3" stroke-linecap="round" stroke-linejoin="round"/>
<g id="instituto_2">
<g id="symbolIcon">
<path id="Rectangle-1097" fill-rule="evenodd" clip-rule="evenodd" d="M33.4779 44.8111C40.9481 47.8932 46.1237 49.767 49.0015 50.7537C51.119 51.4819 53.4186 51.4819 55.5352 50.7537C58.4129 49.7679 63.5869 47.8941 71.0596 44.8111C71.0981 46.0787 71.1161 47.347 71.1143 48.6154V48.6188C71.1143 53.427 70.8715 56.4481 70.6303 58.2583C70.4909 59.2923 69.9094 60.1785 68.9883 60.6628C66.3338 62.0592 60.9358 64.0884 52.2683 64.0884C43.6009 64.0884 38.2029 62.0575 35.5492 60.6611C34.6282 60.1768 34.0458 59.2906 33.9072 58.2549C33.6652 56.4464 33.4232 53.4253 33.4232 48.6154V48.612C33.4206 47.3453 33.4386 46.0778 33.4779 44.8111ZM32.55 40.5526C32.5098 40.5346 32.4696 40.5174 32.4286 40.5011C26.6714 38.0828 22.5716 36.209 19.7999 34.8754C19.4048 34.6856 19.167 34.3627 19.167 34.0115C19.167 33.6602 19.4048 33.3373 19.7999 33.1467C22.6562 31.7727 26.9245 29.8225 32.9614 27.2977C41.3492 23.7889 47.0781 21.7081 50.1543 20.6536H50.1569C51.5252 20.1821 53.0115 20.1821 54.3807 20.6536H54.3824C57.4568 21.7081 63.1892 23.7889 71.5762 27.2977C77.6139 29.8225 81.8796 31.7727 84.7385 33.1467C85.1328 33.3365 85.3688 33.6602 85.3688 34.0115C85.3688 34.3618 85.1328 34.6856 84.7385 34.8754C81.8796 36.2494 77.6121 38.1996 71.5762 40.7243C63.1884 44.2332 57.4585 46.314 54.3824 47.3685L54.3807 47.3694C53.0115 47.84 51.5252 47.84 50.1569 47.3694L50.1551 47.3685C47.0807 46.314 41.3475 44.2332 32.9614 40.7243C32.8228 40.6668 32.686 40.6093 32.55 40.5526Z" fill="#FDFDFC"/>
<path id="Vector" fill-rule="evenodd" clip-rule="evenodd" d="M23.9023 40.7098V67.5252C23.3353 67.362 22.7375 67.2744 22.1209 67.2744C21.5043 67.2744 20.9065 67.362 20.3395 67.5252V39.0859C21.3905 39.5754 22.575 40.1172 23.9023 40.7098Z" fill="#FDFDFC"/>
<path id="Ellipse-20" d="M22.1067 69.214C24.5465 69.214 26.5535 71.221 26.5535 73.6607C26.5535 76.1005 24.5465 78.1074 22.1067 78.1074C19.6682 78.1074 17.66 76.1005 17.66 73.6607C17.66 71.221 19.6682 69.214 22.1067 69.214Z" fill="#FDFDFC"/>
</g>
</g>
</g>
</svg>
