<svg width="103" height="121" viewBox="0 0 103 121" fill="none" xmlns="http://www.w3.org/2000/svg">
<g id="liga">
<path id="backgroundIcon" d="M101.5 51.2311C101.5 86.9243 64.4167 112.367 54.1222 118.744C53.3378 119.238 52.4284 119.5 51.5 119.5C50.5716 119.5 49.6622 119.238 48.8778 118.744C38.5861 112.367 1.5 86.9243 1.5 51.2311C1.5 23.7657 23.8861 1.5 51.5 1.5C79.1139 1.5 101.5 23.7657 101.5 51.2311Z" fill="#CB5300" stroke="#FDFDFC" stroke-width="3" stroke-linecap="round" stroke-linejoin="round"/>
<g id="liga_2">
<path id="symbolIcon" d="M55.7861 80.0967C56.3766 80.0967 56.9534 80.1581 57.5098 80.2754C61.0577 81.0231 63.7716 84.0318 64.0752 87.7236L63.3857 88.4131H39.8701L39.1807 87.7236C39.4834 84.032 42.1982 81.0233 45.7451 80.2754C46.3015 80.1581 46.8784 80.0967 47.4697 80.0967H55.7861ZM45.7363 67.0205C47.9427 67.8821 49.9937 68.3955 51.6279 68.3955C53.2621 68.3955 55.3131 67.883 57.5186 67.0215V78.5127C56.9556 78.4146 56.3765 78.3643 55.7861 78.3643H47.4697C46.8784 78.3643 46.2994 78.4146 45.7363 78.5127V67.0205ZM51.6279 19.6582C61.7317 19.6582 67.1578 20.3912 69.959 21.0107C72.4873 21.5705 74.1105 23.6424 74.4082 26.2148C74.7276 28.9635 75.1299 33.4894 75.1299 38.8203C75.1299 49.2904 69.5823 59.0759 60.2725 63.8672C57.0639 65.5197 53.9108 66.6621 51.6279 66.6621C49.3441 66.6621 46.191 65.518 42.9824 63.8672C33.6726 59.0758 28.126 49.2912 28.126 38.8203C28.126 33.4894 28.5283 28.9635 28.8477 26.2148C29.1454 23.6425 30.7686 21.5705 33.2969 21.0107C36.0963 20.3911 41.5239 19.6582 51.6279 19.6582ZM26.5664 32.6211C26.4625 34.5031 26.3936 36.5923 26.3936 38.8203C26.3936 43.0044 27.2308 47.0848 28.8018 50.8174C26.7768 50.8315 25.0511 50.6707 23.6074 50.4287L23.6016 50.4277C19.5731 49.7389 16.6279 46.2469 16.6279 42.1602V36.8701C16.628 35.7433 17.0755 34.6619 17.8721 33.8652C18.6688 33.0685 19.75 32.6211 20.877 32.6211H26.5664ZM82.3789 32.6211C83.5058 32.6211 84.5862 33.0685 85.3838 33.8652C86.1805 34.6619 86.6279 35.7432 86.6279 36.8701V42.1602C86.6279 46.247 83.682 49.7391 79.6533 50.4277L79.6484 50.4287C78.2046 50.6707 76.4784 50.8315 74.4541 50.8174C76.0251 47.0848 76.8623 43.0045 76.8623 38.8203C76.8623 36.5923 76.7934 34.5031 76.6895 32.6211H82.3789Z" fill="#FDFDFC"/>
</g>
</g>
</svg>
