<svg width="103" height="121" viewBox="0 0 103 121" fill="none" xmlns="http://www.w3.org/2000/svg">
<g id="marca">
<path id="backgroundIcon" d="M101.5 51.2311C101.5 86.9243 64.4167 112.367 54.1222 118.744C53.3378 119.238 52.4284 119.5 51.5 119.5C50.5716 119.5 49.6622 119.238 48.8778 118.744C38.5861 112.367 1.5 86.9243 1.5 51.2311C1.5 23.7657 23.8861 1.5 51.5 1.5C79.1139 1.5 101.5 23.7657 101.5 51.2311Z" fill="#CB5300" stroke="#FDFDFC" stroke-width="3" stroke-linecap="round" stroke-linejoin="round"/>
<g id="marca_2">
<g id="store">
<path id="symbolIcon" fill-rule="evenodd" clip-rule="evenodd" d="M67.5872 23.1803C70.3834 23.335 72.7836 25.2255 73.5895 27.9076C77.9849 42.7274 81.0747 57.7559 83.5389 72.8834C83.8433 74.7705 83.3219 76.6967 82.1068 78.1721C80.8925 79.6483 79.1011 80.5299 77.1915 80.5923C60.3657 81.1112 43.1607 81.0464 25.6787 80.5573C23.7667 80.5016 21.9719 79.6267 20.751 78.1554C19.5293 76.6834 19.0011 74.7572 19.2989 72.8684C21.6733 58.0969 24.8404 43.1499 29.3007 27.9201C30.0966 25.228 32.496 23.3259 35.298 23.1645C46.3219 22.5607 57.0606 22.6223 67.5872 23.1803ZM61.1683 40.7621C61.1683 45.4279 56.7529 49.0898 51.4343 49.0898C46.1165 49.0898 41.7011 45.4279 41.7011 40.7621C41.7011 39.8057 40.9243 39.0297 39.9679 39.0297C39.0114 39.0297 38.2355 39.8057 38.2355 40.7621C38.2355 47.2093 44.0864 52.5554 51.4343 52.5554C58.7822 52.5554 64.6339 47.2093 64.6339 40.7621C64.6339 39.8057 63.8571 39.0297 62.9007 39.0297C61.9443 39.0297 61.1683 39.8057 61.1683 40.7621Z" fill="#FDFDFC"/>
</g>
</g>
</g>
</svg>
