<svg width="103" height="121" viewBox="0 0 103 121" fill="none" xmlns="http://www.w3.org/2000/svg">
<g id="movimento">
<path id="backgroundIcon" d="M101.5 51.2311C101.5 86.9243 64.4167 112.367 54.1222 118.744C53.3378 119.238 52.4284 119.5 51.5 119.5C50.5716 119.5 49.6622 119.238 48.8778 118.744C38.5861 112.367 1.5 86.9243 1.5 51.2311C1.5 23.7657 23.8861 1.5 51.5 1.5C79.1139 1.5 101.5 23.7657 101.5 51.2311Z" fill="#CB5300" stroke="#FDFDFC" stroke-width="3" stroke-linecap="round" stroke-linejoin="round"/>
<g id="movimento_2">
<path id="symbolIcon" fill-rule="evenodd" clip-rule="evenodd" d="M73.0134 36.5024C68.2013 36.0765 61.9219 36.5009 53.2196 40.41C50.8643 41.4559 49.2269 43.6163 48.8176 46.1115L37.4582 46.0566C34.3791 46.0415 31.6702 44.0166 30.783 41.0677L29.1825 35.7431C28.9582 34.9974 28.1704 34.5745 27.4247 34.7988C26.679 35.023 26.2561 35.8101 26.4803 36.5558L28.0809 41.8803C29.3247 46.0174 33.1247 48.8573 37.4447 48.8784L48.7182 48.9333V51.3427C48.7182 53.3548 49.5174 55.2849 50.9403 56.7079C52.3128 58.0804 54.1571 58.8727 56.0925 58.9277C55.1158 59.5846 54.1978 60.3385 53.3527 61.1828C51.2195 63.3161 49.6641 65.9197 48.7882 68.7505C48.5324 69.5767 48.9952 70.4556 49.8221 70.7114C50.6484 70.9673 51.5272 70.5037 51.7831 69.6775C52.51 67.3298 53.8005 65.1694 55.5703 63.3996C58.432 60.538 62.3132 58.9307 66.36 58.9307C67.2261 58.9307 67.9274 58.2286 67.9274 57.3625C67.9274 56.4972 67.2261 55.7951 66.36 55.7951H56.3055C55.1248 55.7951 53.9923 55.3263 53.1571 54.4911C52.3226 53.6558 51.8531 52.5233 51.8531 51.3427V47.3418C51.8531 45.5818 52.89 43.9865 54.4988 43.2724L54.5048 43.2694C62.6037 39.6319 68.6784 38.6883 74.2618 39.0247C78.7525 40.0217 82.0431 44.0219 82.0431 48.7331V57.3625C82.0431 66.63 80.18 72.0177 73.0134 76.8087C69.1043 79.4221 64.4661 81.0316 59.4689 81.2679C59.0437 81.2882 58.6163 81.298 58.1866 81.298H43.7421C29.5708 81.298 20.3401 69.1327 20.3401 54.9614V48.3328C20.3401 40.7328 20.2341 31.8641 25.6075 26.4907C30.9817 21.1165 38.3853 21.1 45.9853 21.1H61.3215C64.223 21.1 67.7581 21.5078 69.8094 23.5591C71.8606 25.6111 73.0134 28.3937 73.0134 31.2945V36.5024Z" fill="#FDFDFC"/>
</g>
</g>
</svg>
