<svg width="103" height="121" viewBox="0 0 103 121" fill="none" xmlns="http://www.w3.org/2000/svg">
<g id="musica">
<path id="backgroundIcon" d="M101.5 51.2311C101.5 86.9243 64.4167 112.367 54.1222 118.744C53.3378 119.238 52.4284 119.5 51.5 119.5C50.5716 119.5 49.6622 119.238 48.8778 118.744C38.5861 112.367 1.5 86.9243 1.5 51.2311C1.5 23.7657 23.8861 1.5 51.5 1.5C79.1139 1.5 101.5 23.7657 101.5 51.2311Z" fill="#CB5300" stroke="#FDFDFC" stroke-width="3" stroke-linecap="round" stroke-linejoin="round"/>
<g id="musica_2">
<g id="symbolIcon">
<path id="Union" d="M78.0727 29.7905C78.0727 27.3007 76.0537 25.2646 73.5219 25.4348C67.1599 25.8626 53.9348 27.4024 41.2766 32.9633C38.7994 34.0516 37.3124 36.5423 37.3124 39.2065V59.6068C36.4261 59.4022 35.5032 59.2943 34.5558 59.2943C27.8101 59.2943 22.3416 64.7628 22.3416 71.5085C22.3416 78.2542 27.8101 83.7227 34.5558 83.7227C41.0058 83.7227 46.2878 78.7234 46.7388 72.3879C46.759 72.3252 46.77 72.2583 46.77 72.189V47.5918C55.3906 44.5755 63.088 43.1092 68.6151 42.3969V52.8018C67.7287 52.5974 66.8058 52.4894 65.8584 52.4894C59.1128 52.4894 53.6443 57.9579 53.6443 64.7036C53.6443 71.4494 59.1128 76.9178 65.8584 76.9178C72.3086 76.9178 77.5906 71.9184 78.0415 65.5827C78.0617 65.5201 78.0727 65.4533 78.0727 65.384V29.7905Z" fill="#F6F6F4"/>
</g>
</g>
</g>
</svg>
