<svg width="84" height="84" viewBox="0 0 84 84" fill="none" xmlns="http://www.w3.org/2000/svg">
<g filter="url(#filter0_dd_272_1189)">
<rect x="8" y="6" width="68" height="68" rx="34" fill="#CB5300"/>
<rect x="10.5" y="8.5" width="63" height="63" rx="31.5" stroke="white" stroke-width="5"/>
<path d="M54.0006 28.8409C54.0006 27.7164 53.0888 26.7969 51.9454 26.8738C49.0723 27.0669 43.0997 27.7623 37.3831 30.2737C36.2643 30.7652 35.5928 31.8901 35.5928 33.0932V42.3063C35.1925 42.2139 34.7757 42.1651 34.3479 42.1651C31.3014 42.1651 28.8318 44.6348 28.8318 47.6812C28.8318 50.7277 31.3014 53.1973 34.3479 53.1973C37.2608 53.1973 39.6462 50.9396 39.8499 48.0784C39.859 48.0501 39.864 48.0199 39.864 47.9885V36.8801C43.7571 35.5179 47.2334 34.8557 49.7295 34.5341V39.2331C49.3292 39.1407 48.9124 39.0919 48.4845 39.0919C45.4381 39.0919 42.9685 41.5616 42.9685 44.6081C42.9685 47.6545 45.4381 50.1241 48.4845 50.1241C51.3975 50.1241 53.7829 47.8663 53.9866 45.0051C53.9957 44.9768 54.0006 44.9466 54.0006 44.9153V28.8409Z" fill="#FAEEE6"/>
</g>
<defs>
<filter id="filter0_dd_272_1189" x="0" y="0" width="84" height="84" filterUnits="userSpaceOnUse" color-interpolation-filters="sRGB">
<feFlood flood-opacity="0" result="BackgroundImageFix"/>
<feColorMatrix in="SourceAlpha" type="matrix" values="0 0 0 0 0 0 0 0 0 0 0 0 0 0 0 0 0 0 127 0" result="hardAlpha"/>
<feMorphology radius="2" operator="dilate" in="SourceAlpha" result="effect1_dropShadow_272_1189"/>
<feOffset dy="2"/>
<feGaussianBlur stdDeviation="3"/>
<feColorMatrix type="matrix" values="0 0 0 0 0 0 0 0 0 0 0 0 0 0 0 0 0 0 0.15 0"/>
<feBlend mode="normal" in2="BackgroundImageFix" result="effect1_dropShadow_272_1189"/>
<feColorMatrix in="SourceAlpha" type="matrix" values="0 0 0 0 0 0 0 0 0 0 0 0 0 0 0 0 0 0 127 0" result="hardAlpha"/>
<feOffset dy="1"/>
<feGaussianBlur stdDeviation="1"/>
<feColorMatrix type="matrix" values="0 0 0 0 0 0 0 0 0 0 0 0 0 0 0 0 0 0 0.3 0"/>
<feBlend mode="normal" in2="effect1_dropShadow_272_1189" result="effect2_dropShadow_272_1189"/>
<feBlend mode="normal" in="SourceGraphic" in2="effect2_dropShadow_272_1189" result="shape"/>
</filter>
</defs>
</svg>
