<svg width="84" height="84" viewBox="0 0 84 84" fill="none" xmlns="http://www.w3.org/2000/svg">
<g filter="url(#filter0_dd_272_1194)">
<rect x="8" y="6" width="68" height="68" rx="34" fill="#CB5300"/>
<rect x="10.5" y="8.5" width="63" height="63" rx="31.5" stroke="white" stroke-width="5"/>
<path fill-rule="evenodd" clip-rule="evenodd" d="M35.8868 44.0882C35.7589 44.0586 35.6259 44.0428 35.4889 44.0428C35.1075 44.0428 34.754 44.165 34.466 44.3727C34.3296 44.4711 34.1568 44.5049 33.9933 44.4658C33.8297 44.4264 33.6914 44.3178 33.6146 44.1681C32.954 42.8826 32.5808 41.4255 32.5808 39.8819C32.5808 35.4221 35.6946 31.684 39.8644 30.7239C40.0915 30.6715 40.3279 30.7608 40.4635 30.9504C40.5993 31.1398 40.6079 31.392 40.4854 31.5902C40.3202 31.8575 40.2251 32.1724 40.2251 32.5095C40.2251 33.1807 40.6029 33.7643 41.1577 34.059C40.8807 33.9192 40.5403 34.0243 40.3909 34.2985L35.5136 43.2499C35.3611 43.5299 35.4645 43.8809 35.7445 44.0336C35.7903 44.0586 35.8382 44.0766 35.8868 44.0882ZM41.1743 34.0676C41.4152 34.1923 41.6886 34.2624 41.978 34.2624C42.9455 34.2624 43.7312 33.4771 43.7312 32.5095C43.7312 32.1724 43.6358 31.8575 43.4709 31.5902C43.3483 31.392 43.3569 31.1398 43.4925 30.9504C43.6283 30.7608 43.8645 30.6715 44.0916 30.7239C45.119 30.9604 46.0821 31.3654 46.9504 31.9082C47.1616 32.0405 47.2645 32.293 47.2054 32.5348C47.173 32.6684 47.1558 32.8078 47.1558 32.9512C47.1558 33.4208 47.341 33.8477 47.642 34.1626C47.4144 33.9395 47.0485 33.9428 46.8253 34.1704L37.0431 44.1401C36.8537 44.333 36.8274 44.6255 36.9624 44.8462C36.7204 44.4714 36.3389 44.1947 35.892 44.0893C36.1379 44.1459 36.4013 44.035 36.528 43.8027L41.4052 34.8513C41.5577 34.5713 41.4543 34.2203 41.1743 34.0676ZM37.2421 45.796C37.2421 45.4536 37.1437 45.1339 36.9738 44.8639C36.9957 44.8969 37.0212 44.928 37.0506 44.9568C37.2782 45.1802 37.6441 45.1766 37.8675 44.9493L47.6498 34.9794C47.8666 34.7584 47.8696 34.4072 47.6614 34.1826C47.9794 34.5045 48.421 34.7041 48.9087 34.7041C49.0523 34.7041 49.1917 34.6872 49.3251 34.6544C49.5671 34.5954 49.8197 34.6982 49.9516 34.9095C50.7423 36.1742 51.2407 37.6402 51.3516 39.2126C51.3674 39.4369 51.2515 39.6501 51.0547 39.7588C50.8579 39.8674 50.6159 39.8522 50.4343 39.7191C50.1446 39.507 49.7869 39.3817 49.4008 39.3817C48.4332 39.3817 47.6476 40.1671 47.6476 41.1346C47.6476 42.1022 48.4332 42.8878 49.4008 42.8878C49.579 42.8878 49.7515 42.8612 49.9136 42.8116C50.1288 42.7456 50.3628 42.8108 50.5127 42.9785C50.663 43.1459 50.7021 43.3855 50.6131 43.5923C49.1732 46.9359 45.847 49.279 41.978 49.279C40.1236 49.279 38.394 48.7407 36.9369 47.812C36.7952 47.7216 36.6999 47.5741 36.6757 47.4075C36.6516 47.2411 36.7012 47.0726 36.8119 46.9456C37.0797 46.6379 37.2421 46.2356 37.2421 45.796ZM37.2421 45.796C37.2421 45.8625 37.2535 45.9301 37.2779 45.9961C37.3885 46.2952 37.7209 46.4483 38.0197 46.3377L47.2703 42.9186C47.5694 42.8083 47.7224 42.4756 47.6118 42.1767C47.5012 41.8776 47.1688 41.7246 46.87 41.8352L37.6194 45.2542C37.3866 45.3402 37.2421 45.5611 37.2421 45.796Z" fill="#FAEEE6"/>
<path fill-rule="evenodd" clip-rule="evenodd" d="M35.4889 42.8878C37.0941 42.8878 38.3973 44.1908 38.3973 45.7959C38.3973 47.4008 37.0941 48.7041 35.4889 48.7041C33.8841 48.7041 32.5808 47.4008 32.5808 45.7959C32.5808 44.1908 33.8841 42.8878 35.4889 42.8878ZM35.4889 44.0427C34.5214 44.0427 33.736 44.8284 33.736 45.7959C33.736 46.7635 34.5214 47.5488 35.4889 47.5488C36.4565 47.5488 37.2421 46.7635 37.2421 45.7959C37.2421 44.8284 36.4565 44.0427 35.4889 44.0427Z" fill="#FAEEE6"/>
<path fill-rule="evenodd" clip-rule="evenodd" d="M48.9086 30.0431C50.5138 30.0431 51.8167 31.3461 51.8167 32.9512C51.8167 34.5564 50.5138 35.8593 48.9086 35.8593C47.3037 35.8593 46.0005 34.5564 46.0005 32.9512C46.0005 31.3461 47.3037 30.0431 48.9086 30.0431ZM48.9086 31.1983C47.9411 31.1983 47.1557 31.9837 47.1557 32.9512C47.1557 33.9187 47.9411 34.7041 48.9086 34.7041C49.8761 34.7041 50.6618 33.9187 50.6618 32.9512C50.6618 31.9837 49.8761 31.1983 48.9086 31.1983Z" fill="#FAEEE6"/>
<path fill-rule="evenodd" clip-rule="evenodd" d="M41.9779 29.6014C43.5831 29.6014 44.8861 30.9044 44.8861 32.5096C44.8861 34.1144 43.5831 35.4177 41.9779 35.4177C40.3731 35.4177 39.0698 34.1144 39.0698 32.5096C39.0698 30.9044 40.3731 29.6014 41.9779 29.6014ZM41.9779 30.7564C41.0104 30.7564 40.225 31.542 40.225 32.5096C40.225 33.4771 41.0104 34.2625 41.9779 34.2625C42.9455 34.2625 43.7311 33.4771 43.7311 32.5096C43.7311 31.542 42.9455 30.7564 41.9779 30.7564Z" fill="#FAEEE6"/>
<path fill-rule="evenodd" clip-rule="evenodd" d="M49.3503 38.2266C50.9554 38.2266 52.2587 39.5298 52.2587 41.1347C52.2587 42.7398 50.9554 44.0428 49.3503 44.0428C47.7454 44.0428 46.4421 42.7398 46.4421 41.1347C46.4421 39.5298 47.7454 38.2266 49.3503 38.2266ZM49.3503 39.3818C48.3827 39.3818 47.5973 40.1672 47.5973 41.1347C47.5973 42.1022 48.3827 42.8879 49.3503 42.8879C50.3178 42.8879 51.1034 42.1022 51.1034 41.1347C51.1034 40.1672 50.3178 39.3818 49.3503 39.3818Z" fill="#FAEEE6"/>
</g>
<defs>
<filter id="filter0_dd_272_1194" x="0" y="0" width="84" height="84" filterUnits="userSpaceOnUse" color-interpolation-filters="sRGB">
<feFlood flood-opacity="0" result="BackgroundImageFix"/>
<feColorMatrix in="SourceAlpha" type="matrix" values="0 0 0 0 0 0 0 0 0 0 0 0 0 0 0 0 0 0 127 0" result="hardAlpha"/>
<feMorphology radius="2" operator="dilate" in="SourceAlpha" result="effect1_dropShadow_272_1194"/>
<feOffset dy="2"/>
<feGaussianBlur stdDeviation="3"/>
<feColorMatrix type="matrix" values="0 0 0 0 0 0 0 0 0 0 0 0 0 0 0 0 0 0 0.15 0"/>
<feBlend mode="normal" in2="BackgroundImageFix" result="effect1_dropShadow_272_1194"/>
<feColorMatrix in="SourceAlpha" type="matrix" values="0 0 0 0 0 0 0 0 0 0 0 0 0 0 0 0 0 0 127 0" result="hardAlpha"/>
<feOffset dy="1"/>
<feGaussianBlur stdDeviation="1"/>
<feColorMatrix type="matrix" values="0 0 0 0 0 0 0 0 0 0 0 0 0 0 0 0 0 0 0.3 0"/>
<feBlend mode="normal" in2="effect1_dropShadow_272_1194" result="effect2_dropShadow_272_1194"/>
<feBlend mode="normal" in="SourceGraphic" in2="effect2_dropShadow_272_1194" result="shape"/>
</filter>
</defs>
</svg>
