<svg width="103" height="121" viewBox="0 0 103 121" fill="none" xmlns="http://www.w3.org/2000/svg">
<g id="rede">
<path id="backgroundIcon" d="M101.5 51.2311C101.5 86.9243 64.4167 112.367 54.1222 118.744C53.3378 119.238 52.4284 119.5 51.5 119.5C50.5716 119.5 49.6622 119.238 48.8778 118.744C38.5861 112.367 1.5 86.9243 1.5 51.2311C1.5 23.7657 23.8861 1.5 51.5 1.5C79.1139 1.5 101.5 23.7657 101.5 51.2311Z" fill="#CB5300" stroke="#FDFDFC" stroke-width="3" stroke-linecap="round" stroke-linejoin="round"/>
<g id="rede_2">
<g id="symbolIcon">
<path id="Vector" fill-rule="evenodd" clip-rule="evenodd" d="M33.1606 63.7648C32.7772 63.6758 32.3779 63.6284 31.9671 63.6284C30.8227 63.6284 29.7623 63.9952 28.8982 64.6181C28.489 64.9134 27.9709 65.0148 27.4802 64.8976C26.9895 64.7795 26.5745 64.4535 26.3441 64.0043C24.3622 60.1478 23.2427 55.7765 23.2427 51.1457C23.2427 37.7664 32.5842 26.552 45.0935 23.6719C45.7747 23.5147 46.4841 23.7825 46.8908 24.3513C47.2983 24.9194 47.3241 25.6762 46.9565 26.2709C46.4608 27.0726 46.1756 28.0174 46.1756 29.0287C46.1756 31.0422 47.3092 32.7929 48.9734 33.677C48.1425 33.2578 47.1212 33.573 46.6729 34.3956L32.0411 61.2498C31.5837 62.0898 31.8939 63.1427 32.7339 63.601C32.8711 63.6758 33.015 63.7299 33.1606 63.7648ZM49.0233 33.7028C49.746 34.077 50.566 34.2875 51.4343 34.2875C54.3369 34.2875 56.6939 31.9313 56.6939 29.0287C56.6939 28.0174 56.4078 27.0726 55.9129 26.2709C55.5453 25.6762 55.5711 24.9194 55.9778 24.3513C56.3853 23.7825 57.0939 23.5147 57.7751 23.6719C60.8573 24.3813 63.7465 25.5964 66.3514 27.2248C66.9851 27.6215 67.2937 28.3792 67.1165 29.1044C67.0192 29.5053 66.9676 29.9236 66.9676 30.3536C66.9676 31.7625 67.5232 33.0433 68.4264 33.9881C67.7436 33.3186 66.6458 33.3285 65.9763 34.0113L36.6295 63.9203C36.0615 64.4992 35.9825 65.3766 36.3875 66.0386C35.6614 64.9142 34.517 64.0842 33.1764 63.7681C33.9141 63.9378 34.7042 63.6051 35.0842 62.9082L49.716 36.054C50.1735 35.214 49.8633 34.161 49.0233 33.7028ZM37.2267 68.888C37.2267 67.8609 36.9314 66.9019 36.4216 66.0919C36.4873 66.1908 36.5638 66.284 36.652 66.3705C37.3348 67.0408 38.4326 67.03 39.1029 66.348L68.4497 36.4382C69.1001 35.7753 69.1092 34.7216 68.4846 34.0479C69.4386 35.0135 70.7634 35.6123 72.2264 35.6123C72.6572 35.6123 73.0755 35.5616 73.4756 35.4635C74.2016 35.2863 74.9593 35.5949 75.3552 36.2286C77.7271 40.0228 79.2225 44.4207 79.5552 49.138C79.6026 49.8108 79.2549 50.4504 78.6644 50.7764C78.0739 51.1024 77.3479 51.0567 76.8031 50.6575C75.934 50.0212 74.8611 49.6453 73.7026 49.6453C70.8 49.6453 68.4431 52.0015 68.4431 54.9041C68.4431 57.8066 70.8 60.1636 73.7026 60.1636C74.2374 60.1636 74.7547 60.0838 75.2412 59.9349C75.8866 59.737 76.5886 59.9324 77.0385 60.4356C77.4893 60.9379 77.6065 61.6565 77.3396 62.2769C73.0198 72.3079 63.0413 79.3373 51.4343 79.3373C45.8712 79.3373 40.6823 77.7221 36.311 74.936C35.886 74.6649 35.5999 74.2224 35.5275 73.7226C35.4552 73.2235 35.604 72.7179 35.9359 72.337C36.7393 71.4138 37.2267 70.207 37.2267 68.888ZM37.2267 68.888C37.2267 69.0876 37.2608 69.2905 37.3339 69.4885C37.6658 70.3858 38.663 70.8449 39.5595 70.5131L67.3111 60.2559C68.2085 59.9249 68.6676 58.9269 68.3358 58.0304C68.0039 57.133 67.0067 56.6739 66.1102 57.0057L38.3586 67.2629C37.66 67.5207 37.2267 68.1835 37.2267 68.888Z" fill="#FDFDFC"/>
<path id="Vector_2" fill-rule="evenodd" clip-rule="evenodd" d="M31.9671 60.1636C36.7825 60.1636 40.6923 64.0725 40.6923 68.888C40.6923 73.7026 36.7825 77.6124 31.9671 77.6124C27.1525 77.6124 23.2427 73.7026 23.2427 68.888C23.2427 64.0725 27.1525 60.1636 31.9671 60.1636ZM31.9671 63.6284C29.0645 63.6284 26.7084 65.9854 26.7084 68.888C26.7084 71.7906 29.0645 74.1467 31.9671 74.1467C34.8697 74.1467 37.2267 71.7906 37.2267 68.888C37.2267 65.9854 34.8697 63.6284 31.9671 63.6284Z" fill="#FDFDFC"/>
<path id="Vector_3" fill-rule="evenodd" clip-rule="evenodd" d="M72.2264 21.6293C77.0418 21.6293 80.9507 25.5382 80.9507 30.3536C80.9507 35.1691 77.0418 39.078 72.2264 39.078C67.4118 39.078 63.502 35.1691 63.502 30.3536C63.502 25.5382 67.4118 21.6293 72.2264 21.6293ZM72.2264 25.0949C69.3238 25.0949 66.9676 27.4511 66.9676 30.3536C66.9676 33.2562 69.3238 35.6124 72.2264 35.6124C75.1289 35.6124 77.4859 33.2562 77.4859 30.3536C77.4859 27.4511 75.1289 25.0949 72.2264 25.0949Z" fill="#FDFDFC"/>
<path id="Vector_4" fill-rule="evenodd" clip-rule="evenodd" d="M51.4343 20.3044C56.2498 20.3044 60.1587 24.2133 60.1587 29.0287C60.1587 33.8434 56.2498 37.7531 51.4343 37.7531C46.6197 37.7531 42.71 33.8434 42.71 29.0287C42.71 24.2133 46.6197 20.3044 51.4343 20.3044ZM51.4343 23.7692C48.5317 23.7692 46.1756 26.1262 46.1756 29.0287C46.1756 31.9313 48.5317 34.2875 51.4343 34.2875C54.3369 34.2875 56.6939 31.9313 56.6939 29.0287C56.6939 26.1262 54.3369 23.7692 51.4343 23.7692Z" fill="#FDFDFC"/>
<path id="Vector_5" fill-rule="evenodd" clip-rule="evenodd" d="M73.5513 46.1797C78.3667 46.1797 82.2764 50.0894 82.2764 54.904C82.2764 59.7195 78.3667 63.6284 73.5513 63.6284C68.7366 63.6284 64.8269 59.7195 64.8269 54.904C64.8269 50.0894 68.7366 46.1797 73.5513 46.1797ZM73.5513 49.6453C70.6487 49.6453 68.2925 52.0015 68.2925 54.904C68.2925 57.8066 70.6487 60.1636 73.5513 60.1636C76.4538 60.1636 78.8108 57.8066 78.8108 54.904C78.8108 52.0015 76.4538 49.6453 73.5513 49.6453Z" fill="#FDFDFC"/>
</g>
</g>
</g>
</svg>
