<svg width="103" height="121" viewBox="0 0 103 121" fill="none" xmlns="http://www.w3.org/2000/svg">
<g id="uniao">
<path id="backgroundIcon" d="M101.5 51.2311C101.5 86.9243 64.4167 112.367 54.1222 118.744C53.3378 119.238 52.4284 119.5 51.5 119.5C50.5716 119.5 49.6622 119.238 48.8778 118.744C38.5861 112.367 1.5 86.9243 1.5 51.2311C1.5 23.7657 23.8861 1.5 51.5 1.5C79.1139 1.5 101.5 23.7657 101.5 51.2311Z" fill="#CB5300" stroke="#FDFDFC" stroke-width="3" stroke-linecap="round" stroke-linejoin="round"/>
<g id="uniao_2">
<g id="symbolIcon">
<path id="Vector" d="M51.7299 63.7645C57.5958 63.7645 62.351 59.0093 62.351 53.1434C62.351 47.2776 57.5958 42.5223 51.7299 42.5223C45.864 42.5223 41.1088 47.2776 41.1088 53.1434C41.1088 59.0093 45.864 63.7645 51.7299 63.7645Z" fill="#FDFDFC"/>
<g id="g1">
<path id="Union" fill-rule="evenodd" clip-rule="evenodd" d="M60.4864 27.1421C62.2835 28.1134 63.5809 29.8762 63.964 32.0283C64.3532 34.2172 64.8099 37.1969 65.1439 40.62C65.15 40.6761 65.1544 40.7314 65.1579 40.7875C65.207 41.537 64.7915 42.2409 64.1113 42.56C63.431 42.88 62.6236 42.7493 62.0784 42.2321C59.3819 39.6724 55.7378 38.1015 51.7299 38.1015C47.7229 38.1015 44.0788 39.6724 41.3815 42.2321C40.8362 42.7493 40.0298 42.88 39.3495 42.56C38.6684 42.2409 38.2529 41.537 38.3028 40.7875C38.3063 40.7314 38.3107 40.6761 38.316 40.62C38.65 37.196 39.1076 34.2172 39.4968 32.0275C39.879 29.8762 41.1764 28.1134 42.9734 27.1421C44.9353 29.8762 48.1393 31.6707 51.7299 31.6707C55.3206 31.6707 58.5246 29.8762 60.4864 27.1421ZM47.0856 26.2777C48.3707 26.2269 49.9127 26.1918 51.7299 26.1918C53.5463 26.1918 55.0883 26.2269 56.3742 26.2777C55.1233 27.3604 53.4972 28.0187 51.7299 28.0187C49.9618 28.0187 48.3366 27.3604 47.0856 26.2777Z" fill="#FDFDFC"/>
<path id="Ellipse-137" d="M58.8507 20.898C58.8507 24.8042 55.6362 28.0187 51.73 28.0187C47.8238 28.0187 44.6093 24.8042 44.6093 20.898C44.6093 16.9909 47.8238 13.7772 51.73 13.7772C55.6362 13.7772 58.8507 16.9909 58.8507 20.898Z" fill="#FDFDFC"/>
</g>
<g id="g11">
<path id="Union1" fill-rule="evenodd" clip-rule="evenodd" d="M69.9969 73.7062C68.2568 74.7774 66.081 75.0202 64.0262 74.2751C61.9355 73.5177 59.1268 72.4237 55.9947 71.0018C55.9438 70.9781 55.8939 70.9545 55.8439 70.9299C55.1698 70.5977 54.7674 69.8859 54.8314 69.1364C54.8954 68.3878 55.4117 67.754 56.1323 67.5409C59.6966 66.4846 62.8796 64.1143 64.8827 60.6437C66.8866 57.1732 67.3477 53.232 66.4808 49.6168C66.3054 48.8857 66.5956 48.1222 67.2127 47.6917C67.829 47.2622 68.646 47.2543 69.271 47.6725C69.3175 47.7031 69.3631 47.7347 69.4087 47.7671C72.2068 49.7684 74.5579 51.654 76.2603 53.0864C77.932 54.4934 78.8095 56.4982 78.7525 58.5399C75.4038 58.8721 72.248 60.7498 70.4527 63.8592C68.6574 66.9685 68.6101 70.6407 69.9969 73.7062ZM77.4455 62.5337C76.8467 63.6724 76.106 65.0251 75.1978 66.5986C74.2888 68.1712 73.4884 69.4897 72.8012 70.5775C72.4891 68.9532 72.7319 67.2157 73.6155 65.6852C74.4992 64.1546 75.8825 63.0755 77.4455 62.5337Z" fill="#FDFDFC"/>
<path id="Ellipse-1371" d="M76.2226 75.4121C72.8389 73.459 71.6624 69.068 73.6155 65.6852C75.5686 62.3023 79.9596 61.1259 83.3433 63.079C86.7262 65.0321 87.9026 69.4231 85.9495 72.8059C83.9964 76.1888 79.6055 77.3652 76.2226 75.4121Z" fill="#FDFDFC"/>
</g>
<g id="g12">
<path id="Union2" fill-rule="evenodd" clip-rule="evenodd" d="M25.0668 58.7511C25.009 56.7086 25.8865 54.7038 27.5591 53.2968C29.2606 51.8645 31.6116 49.9797 34.4098 47.9784C34.4554 47.946 34.5018 47.9135 34.5474 47.8829C35.1725 47.4647 35.9895 47.4726 36.6066 47.903C37.2237 48.3326 37.5139 49.0961 37.3386 49.8272C36.4707 53.4424 36.9318 57.3836 38.9358 60.8541C40.9397 64.3247 44.1218 66.695 47.687 67.7514C48.4076 67.9652 48.9239 68.5982 48.9879 69.3477C49.051 70.0963 48.6495 70.8081 47.9754 71.1404C47.9255 71.1649 47.8755 71.1886 47.8238 71.2122C44.6916 72.635 41.8838 73.7281 39.7922 74.4855C37.7374 75.2306 35.5626 74.9878 33.8233 73.9175C35.2102 70.8511 35.1619 67.1798 33.3666 64.0704C31.5713 60.9611 28.4155 59.0834 25.0668 58.7511ZM31.0182 70.7888C30.3318 69.7009 29.5306 68.3834 28.6224 66.8099C27.7133 65.2363 26.9726 63.8837 26.3739 62.745C27.9369 63.2868 29.3202 64.3659 30.2038 65.8964C31.0874 67.427 31.3303 69.1645 31.0182 70.7888Z" fill="#FDFDFC"/>
<path id="Ellipse-1372" d="M20.4769 63.2903C23.8598 61.3372 28.2507 62.5136 30.2038 65.8964C32.1569 69.2793 30.9805 73.6703 27.5977 75.6234C24.2139 77.5765 19.823 76.4 17.8699 73.0172C15.9168 69.6343 17.0941 65.2433 20.4769 63.2903Z" fill="#FDFDFC"/>
</g>
</g>
</g>
</g>
</svg>
