<svg width="84" height="84" viewBox="0 0 84 84" fill="none" xmlns="http://www.w3.org/2000/svg">
<g filter="url(#filter0_dd_272_1134)">
<rect x="8" y="6" width="68" height="68" rx="34" fill="#CB5300"/>
<rect x="10.5" y="8.5" width="63" height="63" rx="31.5" stroke="white" stroke-width="5"/>
<path d="M42.0894 47.1029C44.3706 47.1029 46.2198 45.2536 46.2198 42.9725C46.2198 40.6913 44.3706 38.842 42.0894 38.842C39.8082 38.842 37.959 40.6913 37.959 42.9725C37.959 45.2536 39.8082 47.1029 42.0894 47.1029Z" fill="#FAEEE6"/>
<path fill-rule="evenodd" clip-rule="evenodd" d="M45.4948 32.8608C46.1936 33.2385 46.6982 33.924 46.8471 34.761C46.9985 35.6122 47.1761 36.7709 47.306 38.1022C47.3084 38.124 47.3101 38.1455 47.3114 38.1673C47.3305 38.4588 47.1689 38.7325 46.9044 38.8566C46.6399 38.981 46.3259 38.9302 46.1138 38.7291C45.0652 37.7337 43.6481 37.1228 42.0894 37.1228C40.5312 37.1228 39.114 37.7337 38.065 38.7291C37.853 38.9302 37.5394 38.981 37.2748 38.8566C37.0099 38.7325 36.8484 38.4588 36.8678 38.1673C36.8692 38.1455 36.8709 38.124 36.8729 38.1022C37.0028 36.7706 37.1807 35.6122 37.3321 34.7606C37.4807 33.924 37.9853 33.2385 38.6841 32.8608C39.4471 33.924 40.6931 34.6219 42.0894 34.6219C43.4858 34.6219 44.7318 33.924 45.4948 32.8608ZM40.2833 32.5246C40.7831 32.5048 41.3827 32.4912 42.0894 32.4912C42.7958 32.4912 43.3955 32.5048 43.8956 32.5246C43.4091 32.9456 42.7767 33.2017 42.0894 33.2017C41.4018 33.2017 40.7698 32.9456 40.2833 32.5246Z" fill="#FAEEE6"/>
<path d="M44.8587 30.4325C44.8587 31.9516 43.6086 33.2017 42.0895 33.2017C40.5704 33.2017 39.3203 31.9516 39.3203 30.4325C39.3203 28.9131 40.5704 27.6633 42.0895 27.6633C43.6086 27.6633 44.8587 28.9131 44.8587 30.4325Z" fill="#FAEEE6"/>
<path fill-rule="evenodd" clip-rule="evenodd" d="M49.1932 50.969C48.5165 51.3856 47.6704 51.48 46.8713 51.1902C46.0583 50.8957 44.966 50.4702 43.7479 49.9173C43.7282 49.9081 43.7087 49.8989 43.6893 49.8893C43.4271 49.7601 43.2707 49.4833 43.2956 49.1918C43.3204 48.9007 43.5212 48.6542 43.8015 48.5714C45.1876 48.1606 46.4254 47.2388 47.2044 45.8891C47.9837 44.5395 48.163 43.0068 47.8259 41.6009C47.7577 41.3166 47.8705 41.0196 48.1105 40.8523C48.3502 40.6852 48.6679 40.6821 48.911 40.8448C48.929 40.8567 48.9468 40.869 48.9645 40.8816C50.0527 41.6599 50.967 42.3932 51.629 42.9502C52.2791 43.4973 52.6204 44.277 52.5982 45.071C51.2959 45.2002 50.0687 45.9304 49.3705 47.1396C48.6723 48.3488 48.6539 49.7768 49.1932 50.969ZM52.0899 46.6241C51.8571 47.067 51.569 47.593 51.2158 48.2049C50.8623 48.8165 50.5511 49.3292 50.2838 49.7523C50.1624 49.1206 50.2569 48.4449 50.6005 47.8497C50.9441 47.2545 51.4821 46.8348 52.0899 46.6241Z" fill="#FAEEE6"/>
<path d="M51.6143 51.6325C50.2984 50.8729 49.8409 49.1653 50.6004 47.8498C51.3599 46.5342 53.0675 46.0767 54.3834 46.8362C55.699 47.5958 56.1565 49.3034 55.3969 50.6189C54.6374 51.9345 52.9298 52.392 51.6143 51.6325Z" fill="#FAEEE6"/>
<path fill-rule="evenodd" clip-rule="evenodd" d="M31.7205 45.1532C31.698 44.3589 32.0393 43.5792 32.6897 43.0321C33.3514 42.475 34.2657 41.7421 35.3539 40.9638C35.3716 40.9512 35.3897 40.9386 35.4074 40.9266C35.6505 40.764 35.9682 40.7671 36.2082 40.9345C36.4482 41.1015 36.5611 41.3984 36.4929 41.6828C36.1554 43.0887 36.3347 44.6214 37.114 45.971C37.8933 47.3207 39.1308 48.2425 40.5173 48.6533C40.7975 48.7364 40.9983 48.9826 41.0232 49.274C41.0477 49.5652 40.8916 49.842 40.6294 49.9712C40.61 49.9807 40.5906 49.99 40.5704 49.9992C39.3524 50.5524 38.2605 50.9776 37.4471 51.2721C36.648 51.5619 35.8022 51.4674 35.1258 51.0512C35.6652 49.8587 35.6464 48.431 34.9482 47.2218C34.2501 46.0126 33.0228 45.2824 31.7205 45.1532ZM34.0349 49.8345C33.768 49.4114 33.4564 48.8991 33.1032 48.2871C32.7497 47.6752 32.4617 47.1492 32.2288 46.7063C32.8367 46.917 33.3746 47.3367 33.7182 47.9319C34.0619 48.5271 34.1563 49.2028 34.0349 49.8345Z" fill="#FAEEE6"/>
<path d="M29.9355 46.9184C31.251 46.1589 32.9586 46.6164 33.7182 47.9319C34.4777 49.2475 34.0202 50.9551 32.7046 51.7146C31.3887 52.4741 29.6811 52.0166 28.9216 50.7011C28.1621 49.3855 28.6199 47.6779 29.9355 46.9184Z" fill="#FAEEE6"/>
</g>
<defs>
<filter id="filter0_dd_272_1134" x="0" y="0" width="84" height="84" filterUnits="userSpaceOnUse" color-interpolation-filters="sRGB">
<feFlood flood-opacity="0" result="BackgroundImageFix"/>
<feColorMatrix in="SourceAlpha" type="matrix" values="0 0 0 0 0 0 0 0 0 0 0 0 0 0 0 0 0 0 127 0" result="hardAlpha"/>
<feMorphology radius="2" operator="dilate" in="SourceAlpha" result="effect1_dropShadow_272_1134"/>
<feOffset dy="2"/>
<feGaussianBlur stdDeviation="3"/>
<feColorMatrix type="matrix" values="0 0 0 0 0 0 0 0 0 0 0 0 0 0 0 0 0 0 0.15 0"/>
<feBlend mode="normal" in2="BackgroundImageFix" result="effect1_dropShadow_272_1134"/>
<feColorMatrix in="SourceAlpha" type="matrix" values="0 0 0 0 0 0 0 0 0 0 0 0 0 0 0 0 0 0 127 0" result="hardAlpha"/>
<feOffset dy="1"/>
<feGaussianBlur stdDeviation="1"/>
<feColorMatrix type="matrix" values="0 0 0 0 0 0 0 0 0 0 0 0 0 0 0 0 0 0 0.3 0"/>
<feBlend mode="normal" in2="effect1_dropShadow_272_1134" result="effect2_dropShadow_272_1134"/>
<feBlend mode="normal" in="SourceGraphic" in2="effect2_dropShadow_272_1134" result="shape"/>
</filter>
</defs>
</svg>
